<?xml version="1.0" encoding="UTF-8" standalone="no"?><!DOCTYPE svg PUBLIC "-//W3C//DTD SVG 1.1//EN" "http://www.w3.org/Graphics/SVG/1.1/DTD/svg11.dtd"><svg width="100%" height="100%" viewBox="0 0 130 130" version="1.1" xmlns="http://www.w3.org/2000/svg" xmlns:xlink="http://www.w3.org/1999/xlink" xml:space="preserve" xmlns:serif="http://www.serif.com/" style="fill-rule:evenodd;clip-rule:evenodd;"><g id="Warstwa_x0020_1"><g><g><clipPath id="_clip1"><path d="M100.178,29.287l0,84.994l-3.364,-3.789l-45.869,-46.638l-36.897,46.638l-3.361,3.789l0,-92.892l5.555,-5.704l0,86.059l12.424,-15.888l0,-20.307l10.361,0l0,7.057l10.525,-13.46l1.393,-1.568l1.392,1.568l43.901,44.42l0,-71.826l-31.691,0.001l-2.453,-2.453l38.084,0Zm-69.234,53.655l5.806,-7.424l0,-7.692l-5.806,0l0,15.116Z"/></clipPath><g clip-path="url(#_clip1)"><g id="_2143346466656"><rect x="-95.778" y="-74.685" width="302.422" height="279.336" style="fill:url(#_Linear2);stroke:#2b2a29;stroke-width:0.5px;"/></g></g></g></g><path d="M115.548,114.314l-92.198,-92.198l0,89.501l65.097,0l2.669,2.664l-70.431,0l0.001,-98.594l98.628,98.628l-3.767,-0.001Z" style="fill:#fff;fill-rule:nonzero;"/></g><defs><linearGradient id="_Linear2" x1="0" y1="0" x2="1" y2="0" gradientUnits="userSpaceOnUse" gradientTransform="matrix(-278.504,108.98,-108.98,-278.504,194.685,10.494)"><stop offset="0" style="stop-color:#f8dd76;stop-opacity:1"/><stop offset="0.16" style="stop-color:#c08b24;stop-opacity:1"/><stop offset="0.27" style="stop-color:#d9ad3a;stop-opacity:1"/><stop offset="0.41" style="stop-color:#bd8427;stop-opacity:1"/><stop offset="0.74" style="stop-color:#f2d163;stop-opacity:1"/><stop offset="0.86" style="stop-color:#e5bf4d;stop-opacity:1"/><stop offset="1" style="stop-color:#c79423;stop-opacity:1"/></linearGradient></defs></svg>