<?xml version="1.0" encoding="UTF-8" standalone="no"?>
<svg
   xmlns:dc="http://purl.org/dc/elements/1.1/"
   xmlns:cc="http://creativecommons.org/ns#"
   xmlns:rdf="http://www.w3.org/1999/02/22-rdf-syntax-ns#"
   xmlns:svg="http://www.w3.org/2000/svg"
   xmlns="http://www.w3.org/2000/svg"
   xmlns:sodipodi="http://sodipodi.sourceforge.net/DTD/sodipodi-0.dtd"
   xmlns:inkscape="http://www.inkscape.org/namespaces/inkscape"
   inkscape:version="1.0 (4035a4fb49, 2020-05-01)"
   sodipodi:docname="logo_pl_219_45.svg"
   id="svg423"
   style="fill-rule:evenodd;clip-rule:evenodd;stroke-linejoin:round;stroke-miterlimit:2;"
   xml:space="preserve"
   version="1.1"
   viewBox="0 0 240 60"
   height="100%"
   width="100%"><metadata
   id="metadata429"><rdf:RDF><cc:Work
       rdf:about=""><dc:format>image/svg+xml</dc:format><dc:type
         rdf:resource="http://purl.org/dc/dcmitype/StillImage" /><dc:title></dc:title></cc:Work></rdf:RDF></metadata><defs
   id="defs427" /><sodipodi:namedview
   inkscape:pagecheckerboard="true"
   inkscape:current-layer="svg423"
   inkscape:window-maximized="1"
   inkscape:window-y="-8"
   inkscape:window-x="-8"
   inkscape:cy="30"
   inkscape:cx="120"
   inkscape:zoom="4.8625"
   showgrid="false"
   id="namedview425"
   inkscape:window-height="706"
   inkscape:window-width="1366"
   inkscape:pageshadow="2"
   inkscape:pageopacity="0"
   guidetolerance="10"
   gridtolerance="10"
   objecttolerance="10"
   borderopacity="1"
   bordercolor="#666666"
   pagecolor="#ffffff" />
    <g
   id="g421"
   transform="matrix(0.105695,0,0,0.105695,107.317,26.8291)">
        <g
   id="g419">
            <g
   id="g401"
   transform="matrix(4.16667,0,0,4.16667,-6872.03,-4576.36)">
                <clipPath
   id="_clip1">
                    <path
   id="path2"
   clip-rule="nonzero"
   d="M1516.44,1144.91L1516.44,1150.11L1513.17,1146.44L1468.66,1101.18L1432.86,1146.44L1429.6,1150.11L1429.6,1059.97L1434.99,1054.44L1434.99,1137.95L1447.04,1122.53L1447.04,1102.82L1457.1,1102.82L1457.1,1109.67L1467.31,1096.61L1468.66,1095.09L1470.01,1096.61L1512.62,1139.71L1512.62,1070.01L1481.86,1070.01L1479.48,1067.63L1516.44,1067.63L1516.44,1144.91ZM1449.25,1119.7L1454.89,1112.5L1454.89,1105.03L1449.25,1105.03L1449.25,1119.7Z" />
                </clipPath>
                <g
   id="g399"
   clip-path="url(#_clip1)">
                    <g
   id="g397">
                        <g
   id="g7"
   transform="matrix(1,0,0,1,1,188.639)">
                            <path
   id="path5"
   style="fill:rgb(215,167,51);"
   d="M1658.12,1038.52L1656.51,1039.2L1510.16,693.749L1511.77,693.066" />
                        </g>
                        <g
   id="g11"
   transform="matrix(1,0,0,1,1,242.404)">
                            <path
   id="path9"
   style="fill:rgb(209,159,43);"
   d="M1594.67,1011.64L1593.05,1012.32L1446.7,666.867L1448.32,666.183" />
                        </g>
                        <g
   id="g15"
   transform="matrix(1,0,0,1,1,243.316)">
                            <path
   id="path13"
   style="fill:rgb(208,156,44);"
   d="M1593.59,1011.18L1591.98,1011.87L1445.63,666.411L1447.24,665.728" />
                        </g>
                        <g
   id="g19"
   transform="matrix(1,0,0,1,1,244.227)">
                            <path
   id="path17"
   style="fill:rgb(207,155,44);"
   d="M1592.51,1010.73L1590.9,1011.41L1444.55,665.955L1446.16,665.272" />
                        </g>
                        <g
   id="g23"
   transform="matrix(1,0,0,1,1,245.138)">
                            <path
   id="path21"
   style="fill:rgb(205,154,44);"
   d="M1591.44,1010.27L1589.83,1010.96L1443.48,665.5L1445.09,664.816" />
                        </g>
                        <g
   id="g27"
   transform="matrix(1,0,0,1,1,246.05)">
                            <path
   id="path25"
   style="fill:rgb(203,151,44);"
   d="M1590.36,1009.82L1588.75,1010.5L1442.4,665.044L1444.01,664.36" />
                        </g>
                        <g
   id="g31"
   transform="matrix(1,0,0,1,1,246.961)">
                            <path
   id="path29"
   style="fill:rgb(202,150,43);"
   d="M1589.29,1009.36L1587.67,1010.04L1441.33,664.588L1442.94,663.905" />
                        </g>
                        <g
   id="g35"
   transform="matrix(1,0,0,1,1,247.872)">
                            <path
   id="path33"
   style="fill:rgb(201,148,43);"
   d="M1588.21,1008.9L1586.6,1009.59L1440.25,664.133L1441.86,663.449" />
                        </g>
                        <g
   id="g39"
   transform="matrix(1,0,0,1,1,248.783)">
                            <path
   id="path37"
   style="fill:rgb(199,145,43);"
   d="M1587.14,1008.45L1585.52,1009.13L1439.17,663.677L1440.79,662.994" />
                        </g>
                        <g
   id="g43"
   transform="matrix(1,0,0,1,1,249.695)">
                            <path
   id="path41"
   style="fill:rgb(197,144,43);"
   d="M1586.06,1007.99L1584.45,1008.68L1438.1,663.221L1439.71,662.538" />
                        </g>
                        <g
   id="g47"
   transform="matrix(1,0,0,1,1,250.606)">
                            <path
   id="path45"
   style="fill:rgb(197,143,44);"
   d="M1584.99,1007.54L1583.37,1008.22L1437.02,662.766L1438.64,662.082" />
                        </g>
                        <g
   id="g51"
   transform="matrix(1,0,0,1,1,251.517)">
                            <path
   id="path49"
   style="fill:rgb(195,141,44);"
   d="M1583.91,1007.08L1582.3,1007.77L1435.95,662.31L1437.56,661.627" />
                        </g>
                        <g
   id="g55"
   transform="matrix(1,0,0,1,1,252.428)">
                            <path
   id="path53"
   style="fill:rgb(194,139,43);"
   d="M1582.84,1006.63L1581.22,1007.31L1434.87,661.855L1436.49,661.171" />
                        </g>
                        <g
   id="g59"
   transform="matrix(1,0,0,1,1,253.34)">
                            <path
   id="path57"
   style="fill:rgb(193,138,43);"
   d="M1581.76,1006.17L1580.15,1006.86L1433.8,661.399L1435.41,660.715" />
                        </g>
                        <g
   id="g63"
   transform="matrix(1,0,0,1,1,254.251)">
                            <path
   id="path61"
   style="fill:rgb(192,136,43);"
   d="M1580.68,1005.72L1579.07,1006.4L1432.72,660.943L1434.33,660.26" />
                        </g>
                        <g
   id="g67"
   transform="matrix(1,0,0,1,1,255.162)">
                            <path
   id="path65"
   style="fill:rgb(191,135,43);"
   d="M1579.61,1005.26L1578,1005.94L1431.64,660.487L1433.26,659.804" />
                        </g>
                        <g
   id="g71"
   transform="matrix(1,0,0,1,1,256.073)">
                            <path
   id="path69"
   style="fill:rgb(190,133,43);"
   d="M1578.53,1004.8L1576.92,1005.49L1430.57,660.032L1432.18,659.348" />
                        </g>
                        <g
   id="g75"
   transform="matrix(1,0,0,1,1,256.985)">
                            <path
   id="path73"
   style="fill:rgb(189,133,43);"
   d="M1577.46,1004.35L1575.84,1005.03L1429.49,659.576L1431.11,658.893" />
                        </g>
                        <g
   id="g79"
   transform="matrix(1,0,0,1,1,257.896)">
                            <path
   id="path77"
   style="fill:rgb(188,131,43);"
   d="M1576.38,1003.89L1574.77,1004.58L1428.42,659.121L1430.03,658.437" />
                        </g>
                        <g
   id="g83"
   transform="matrix(1,0,0,1,1,258.807)">
                            <path
   id="path81"
   style="fill:rgb(187,131,43);"
   d="M1575.31,1003.44L1573.69,1004.12L1427.34,658.665L1428.96,657.982" />
                        </g>
                        <g
   id="g87"
   transform="matrix(1,0,0,1,1,259.719)">
                            <path
   id="path85"
   style="fill:rgb(188,131,43);"
   d="M1574.23,1002.98L1572.62,1003.67L1426.27,658.209L1427.88,657.526" />
                        </g>
                        <g
   id="g91"
   transform="matrix(1,0,0,1,1,260.63)">
                            <path
   id="path89"
   style="fill:rgb(187,130,43);"
   d="M1573.15,1002.53L1571.54,1003.21L1425.19,657.754L1426.81,657.07" />
                        </g>
                        <g
   id="g95"
   transform="matrix(1,0,0,1,1,261.541)">
                            <path
   id="path93"
   style="fill:rgb(188,130,43);"
   d="M1572.08,1002.07L1570.47,1002.75L1424.12,657.298L1425.73,656.615" />
                        </g>
                        <g
   id="g99"
   transform="matrix(1,0,0,1,1,262.452)">
                            <path
   id="path97"
   style="fill:rgb(188,130,43);"
   d="M1571,1001.62L1569.39,1002.3L1423.04,656.842L1424.65,656.159" />
                        </g>
                        <g
   id="g103"
   transform="matrix(1,0,0,1,1,263.364)">
                            <path
   id="path101"
   style="fill:rgb(188,130,43);"
   d="M1569.93,1001.16L1568.32,1001.84L1421.96,656.387L1423.58,655.703" />
                        </g>
                        <g
   id="g107"
   transform="matrix(1,0,0,1,1,264.275)">
                            <path
   id="path105"
   style="fill:rgb(188,130,43);"
   d="M1568.85,1000.7L1567.24,1001.39L1420.89,655.931L1422.5,655.248" />
                        </g>
                        <g
   id="g111"
   transform="matrix(1,0,0,1,1,265.186)">
                            <path
   id="path109"
   style="fill:rgb(188,131,43);"
   d="M1567.78,1000.25L1566.16,1000.93L1419.81,655.475L1421.43,654.792" />
                        </g>
                        <g
   id="g115"
   transform="matrix(1,0,0,1,1,266.098)">
                            <path
   id="path113"
   style="fill:rgb(188,132,43);"
   d="M1566.7,999.792L1565.09,1000.48L1418.74,655.02L1420.35,654.337" />
                        </g>
                        <g
   id="g119"
   transform="matrix(1,0,0,1,1,267.009)">
                            <path
   id="path117"
   style="fill:rgb(190,132,43);"
   d="M1565.63,999.337L1564.01,1000.02L1417.66,654.564L1419.28,653.881" />
                        </g>
                        <g
   id="g123"
   transform="matrix(1,0,0,1,1,267.92)">
                            <path
   id="path121"
   style="fill:rgb(190,132,43);"
   d="M1564.55,998.881L1562.94,999.564L1416.59,654.109L1418.2,653.425" />
                        </g>
                        <g
   id="g127"
   transform="matrix(1,0,0,1,1,268.832)">
                            <path
   id="path125"
   style="fill:rgb(190,133,43);"
   d="M1563.48,998.425L1561.86,999.109L1415.51,653.653L1417.13,652.969" />
                        </g>
                        <g
   id="g131"
   transform="matrix(1,0,0,1,1,269.743)">
                            <path
   id="path129"
   style="fill:rgb(190,133,43);"
   d="M1562.4,997.97L1560.79,998.653L1414.44,653.197L1416.05,652.514" />
                        </g>
                        <g
   id="g135"
   transform="matrix(1,0,0,1,1,270.654)">
                            <path
   id="path133"
   style="fill:rgb(191,134,43);"
   d="M1561.32,997.514L1559.71,998.198L1413.36,652.742L1414.97,652.058" />
                        </g>
                        <g
   id="g139"
   transform="matrix(1,0,0,1,1,271.565)">
                            <path
   id="path137"
   style="fill:rgb(191,135,43);"
   d="M1560.25,997.059L1558.63,997.742L1412.29,652.286L1413.9,651.603" />
                        </g>
                        <g
   id="g143"
   transform="matrix(1,0,0,1,1,272.477)">
                            <path
   id="path141"
   style="fill:rgb(192,135,43);"
   d="M1559.17,996.603L1557.56,997.286L1411.21,651.83L1412.82,651.147" />
                        </g>
                        <g
   id="g147"
   transform="matrix(1,0,0,1,1,273.388)">
                            <path
   id="path145"
   style="fill:rgb(192,136,43);"
   d="M1558.1,996.147L1556.48,996.831L1410.13,651.375L1411.75,650.691" />
                        </g>
                        <g
   id="g151"
   transform="matrix(1,0,0,1,1,274.299)">
                            <path
   id="path149"
   style="fill:rgb(192,136,43);"
   d="M1557.02,995.692L1555.41,996.375L1409.06,650.919L1410.67,650.236" />
                        </g>
                        <g
   id="g155"
   transform="matrix(1,0,0,1,1,275.21)">
                            <path
   id="path153"
   style="fill:rgb(194,138,43);"
   d="M1555.95,995.236L1554.33,995.919L1407.98,650.464L1409.6,649.78" />
                        </g>
                        <g
   id="g159"
   transform="matrix(1,0,0,1,1,276.122)">
                            <path
   id="path157"
   style="fill:rgb(194,138,43);"
   d="M1554.87,994.78L1553.26,995.464L1406.91,650.008L1408.52,649.324" />
                        </g>
                        <g
   id="g163"
   transform="matrix(1,0,0,1,1,277.033)">
                            <path
   id="path161"
   style="fill:rgb(195,139,43);"
   d="M1553.8,994.325L1552.18,995.008L1405.83,649.552L1407.45,648.869" />
                        </g>
                        <g
   id="g167"
   transform="matrix(1,0,0,1,1,277.944)">
                            <path
   id="path165"
   style="fill:rgb(195,140,44);"
   d="M1552.72,993.869L1551.11,994.552L1404.76,649.096L1406.37,648.413" />
                        </g>
                        <g
   id="g171"
   transform="matrix(1,0,0,1,1,278.855)">
                            <path
   id="path169"
   style="fill:rgb(196,140,43);"
   d="M1551.64,993.414L1550.03,994.097L1403.68,648.641L1405.29,647.958" />
                        </g>
                        <g
   id="g175"
   transform="matrix(1,0,0,1,1,279.767)">
                            <path
   id="path173"
   style="fill:rgb(197,142,43);"
   d="M1550.57,992.958L1548.96,993.641L1402.61,648.185L1404.22,647.502" />
                        </g>
                        <g
   id="g179"
   transform="matrix(1,0,0,1,1,280.678)">
                            <path
   id="path177"
   style="fill:rgb(197,142,43);"
   d="M1549.49,992.502L1547.88,993.186L1401.53,647.73L1403.14,647.046" />
                        </g>
                        <g
   id="g183"
   transform="matrix(1,0,0,1,1,281.589)">
                            <path
   id="path181"
   style="fill:rgb(198,144,44);"
   d="M1548.42,992.046L1546.8,992.73L1400.45,647.274L1402.07,646.591" />
                        </g>
                        <g
   id="g187"
   transform="matrix(1,0,0,1,1,282.501)">
                            <path
   id="path185"
   style="fill:rgb(199,145,43);"
   d="M1547.34,991.591L1545.73,992.274L1399.38,646.818L1400.99,646.135" />
                        </g>
                        <g
   id="g191"
   transform="matrix(1,0,0,1,1,283.412)">
                            <path
   id="path189"
   style="fill:rgb(199,145,43);"
   d="M1546.27,991.135L1544.65,991.819L1398.3,646.363L1399.92,645.679" />
                        </g>
                        <g
   id="g195"
   transform="matrix(1,0,0,1,1,284.323)">
                            <path
   id="path193"
   style="fill:rgb(201,147,43);"
   d="M1545.19,990.679L1543.58,991.363L1397.23,645.907L1398.84,645.224" />
                        </g>
                        <g
   id="g199"
   transform="matrix(1,0,0,1,1,285.235)">
                            <path
   id="path197"
   style="fill:rgb(202,148,43);"
   d="M1544.12,990.224L1542.5,990.907L1396.15,645.451L1397.77,644.768" />
                        </g>
                        <g
   id="g203"
   transform="matrix(1,0,0,1,1,286.146)">
                            <path
   id="path201"
   style="fill:rgb(202,149,44);"
   d="M1543.04,989.768L1541.43,990.452L1395.08,644.996L1396.69,644.312" />
                        </g>
                        <g
   id="g207"
   transform="matrix(1,0,0,1,1,287.057)">
                            <path
   id="path205"
   style="fill:rgb(203,150,44);"
   d="M1541.97,989.313L1540.35,989.996L1394,644.54L1395.62,643.857" />
                        </g>
                        <g
   id="g211"
   transform="matrix(1,0,0,1,1,287.968)">
                            <path
   id="path209"
   style="fill:rgb(204,151,44);"
   d="M1540.89,988.857L1539.28,989.54L1392.93,644.085L1394.54,643.401" />
                        </g>
                        <g
   id="g215"
   transform="matrix(1,0,0,1,1,288.88)">
                            <path
   id="path213"
   style="fill:rgb(206,153,45);"
   d="M1539.81,988.401L1538.2,989.085L1391.85,643.629L1393.46,642.946" />
                        </g>
                        <g
   id="g219"
   transform="matrix(1,0,0,1,1,289.791)">
                            <path
   id="path217"
   style="fill:rgb(206,154,45);"
   d="M1538.74,987.946L1537.13,988.629L1390.78,643.173L1392.39,642.49" />
                        </g>
                        <g
   id="g223"
   transform="matrix(1,0,0,1,1,290.702)">
                            <path
   id="path221"
   style="fill:rgb(206,154,45);"
   d="M1537.66,987.49L1536.05,988.173L1389.7,642.718L1391.31,642.034" />
                        </g>
                        <g
   id="g227"
   transform="matrix(1,0,0,1,1,291.614)">
                            <path
   id="path225"
   style="fill:rgb(207,156,46);"
   d="M1536.59,987.034L1534.97,987.718L1388.62,642.262L1390.24,641.578" />
                        </g>
                        <g
   id="g231"
   transform="matrix(1,0,0,1,1,292.525)">
                            <path
   id="path229"
   style="fill:rgb(208,158,46);"
   d="M1535.51,986.579L1533.9,987.262L1387.55,641.806L1389.16,641.123" />
                        </g>
                        <g
   id="g235"
   transform="matrix(1,0,0,1,1,293.436)">
                            <path
   id="path233"
   style="fill:rgb(210,160,46);"
   d="M1534.44,986.123L1532.82,986.806L1386.47,641.351L1388.09,640.667" />
                        </g>
                        <g
   id="g239"
   transform="matrix(1,0,0,1,1,294.347)">
                            <path
   id="path237"
   style="fill:rgb(210,160,46);"
   d="M1533.36,985.668L1531.75,986.351L1385.4,640.895L1387.01,640.212" />
                        </g>
                        <g
   id="g243"
   transform="matrix(1,0,0,1,1,295.259)">
                            <path
   id="path241"
   style="fill:rgb(211,162,46);"
   d="M1532.29,985.212L1530.67,985.895L1384.32,640.439L1385.93,639.756" />
                        </g>
                        <g
   id="g247"
   transform="matrix(1,0,0,1,1,296.17)">
                            <path
   id="path245"
   style="fill:rgb(212,163,46);"
   d="M1531.21,984.756L1529.6,985.44L1383.25,639.984L1384.86,639.3" />
                        </g>
                        <g
   id="g251"
   transform="matrix(1,0,0,1,1,297.081)">
                            <path
   id="path249"
   style="fill:rgb(213,165,46);"
   d="M1530.13,984.301L1528.52,984.984L1382.17,639.528L1383.78,638.845" />
                        </g>
                        <g
   id="g255"
   transform="matrix(1,0,0,1,1,297.992)">
                            <path
   id="path253"
   style="fill:rgb(214,166,48);"
   d="M1529.06,983.845L1527.44,984.528L1381.1,639.073L1382.71,638.389" />
                        </g>
                        <g
   id="g259"
   transform="matrix(1,0,0,1,1,298.904)">
                            <path
   id="path257"
   style="fill:rgb(215,168,49);"
   d="M1527.98,983.389L1526.37,984.073L1380.02,638.617L1381.63,637.933" />
                        </g>
                        <g
   id="g263"
   transform="matrix(1,0,0,1,1,299.815)">
                            <path
   id="path261"
   style="fill:rgb(215,168,50);"
   d="M1526.91,982.934L1525.29,983.617L1378.94,638.161L1380.56,637.478" />
                        </g>
                        <g
   id="g267"
   transform="matrix(1,0,0,1,1,300.726)">
                            <path
   id="path265"
   style="fill:rgb(216,170,51);"
   d="M1525.83,982.478L1524.22,983.161L1377.87,637.705L1379.48,637.022" />
                        </g>
                        <g
   id="g271"
   transform="matrix(1,0,0,1,1,301.637)">
                            <path
   id="path269"
   style="fill:rgb(217,171,53);"
   d="M1524.76,982.022L1523.14,982.706L1376.79,637.25L1378.41,636.566" />
                        </g>
                        <g
   id="g275"
   transform="matrix(1,0,0,1,1,302.549)">
                            <path
   id="path273"
   style="fill:rgb(219,173,54);"
   d="M1523.68,981.567L1522.07,982.25L1375.72,636.794L1377.33,636.111" />
                        </g>
                        <g
   id="g279"
   transform="matrix(1,0,0,1,1,303.46)">
                            <path
   id="path277"
   style="fill:rgb(220,174,55);"
   d="M1522.61,981.111L1520.99,981.795L1374.64,636.339L1376.26,635.655" />
                        </g>
                        <g
   id="g283"
   transform="matrix(1,0,0,1,1,304.371)">
                            <path
   id="path281"
   style="fill:rgb(221,176,58);"
   d="M1521.53,980.655L1519.92,981.339L1373.57,635.883L1375.18,635.2" />
                        </g>
                        <g
   id="g287"
   transform="matrix(1,0,0,1,1,305.283)">
                            <path
   id="path285"
   style="fill:rgb(222,177,59);"
   d="M1520.45,980.2L1518.84,980.883L1372.49,635.427L1374.1,634.744" />
                        </g>
                        <g
   id="g291"
   transform="matrix(1,0,0,1,1,306.194)">
                            <path
   id="path289"
   style="fill:rgb(222,178,60);"
   d="M1519.38,979.744L1517.77,980.428L1371.41,634.972L1373.03,634.288" />
                        </g>
                        <g
   id="g295"
   transform="matrix(1,0,0,1,1,307.105)">
                            <path
   id="path293"
   style="fill:rgb(223,179,63);"
   d="M1518.3,979.288L1516.69,979.972L1370.34,634.516L1371.95,633.833" />
                        </g>
                        <g
   id="g299"
   transform="matrix(1,0,0,1,1,308.017)">
                            <path
   id="path297"
   style="fill:rgb(224,180,64);"
   d="M1517.23,978.833L1515.61,979.516L1369.26,634.06L1370.88,633.377" />
                        </g>
                        <g
   id="g303"
   transform="matrix(1,0,0,1,1,308.928)">
                            <path
   id="path301"
   style="fill:rgb(225,182,65);"
   d="M1516.15,978.377L1514.54,979.06L1368.19,633.605L1369.8,632.921" />
                        </g>
                        <g
   id="g307"
   transform="matrix(1,0,0,1,1,309.839)">
                            <path
   id="path305"
   style="fill:rgb(226,183,67);"
   d="M1515.08,977.922L1513.46,978.605L1367.11,633.149L1368.73,632.466" />
                        </g>
                        <g
   id="g311"
   transform="matrix(1,0,0,1,1,310.75)">
                            <path
   id="path309"
   style="fill:rgb(226,185,68);"
   d="M1514,977.466L1512.39,978.15L1366.04,632.694L1367.65,632.01" />
                        </g>
                        <g
   id="g315"
   transform="matrix(1,0,0,1,1,311.662)">
                            <path
   id="path313"
   style="fill:rgb(227,186,69);"
   d="M1512.92,977.01L1511.31,977.694L1364.96,632.238L1366.58,631.554" />
                        </g>
                        <g
   id="g319"
   transform="matrix(1,0,0,1,1,312.573)">
                            <path
   id="path317"
   style="fill:rgb(228,187,70);"
   d="M1511.85,976.555L1510.24,977.238L1363.89,631.782L1365.5,631.099" />
                        </g>
                        <g
   id="g323"
   transform="matrix(1,0,0,1,1,313.484)">
                            <path
   id="path321"
   style="fill:rgb(230,189,72);"
   d="M1510.77,976.099L1509.16,976.782L1362.81,631.327L1364.42,630.643" />
                        </g>
                        <g
   id="g327"
   transform="matrix(1,0,0,1,1,314.396)">
                            <path
   id="path325"
   style="fill:rgb(231,190,73);"
   d="M1509.7,975.643L1508.09,976.327L1361.74,630.871L1363.35,630.187" />
                        </g>
                        <g
   id="g331"
   transform="matrix(1,0,0,1,1,315.307)">
                            <path
   id="path329"
   style="fill:rgb(231,190,75);"
   d="M1508.62,975.188L1507.01,975.871L1360.66,630.415L1362.27,629.732" />
                        </g>
                        <g
   id="g335"
   transform="matrix(1,0,0,1,1,316.218)">
                            <path
   id="path333"
   style="fill:rgb(232,192,76);"
   d="M1507.55,974.732L1505.93,975.415L1359.58,629.96L1361.2,629.276" />
                        </g>
                        <g
   id="g339"
   transform="matrix(1,0,0,1,1,317.129)">
                            <path
   id="path337"
   style="fill:rgb(233,193,77);"
   d="M1506.47,974.276L1504.86,974.96L1358.51,629.504L1360.12,628.82" />
                        </g>
                        <g
   id="g343"
   transform="matrix(1,0,0,1,1,318.041)">
                            <path
   id="path341"
   style="fill:rgb(233,194,78);"
   d="M1505.4,973.821L1503.78,974.504L1357.43,629.048L1359.05,628.365" />
                        </g>
                        <g
   id="g347"
   transform="matrix(1,0,0,1,1,318.952)">
                            <path
   id="path345"
   style="fill:rgb(234,195,80);"
   d="M1504.32,973.365L1502.71,974.049L1356.36,628.593L1357.97,627.909" />
                        </g>
                        <g
   id="g351"
   transform="matrix(1,0,0,1,1,319.863)">
                            <path
   id="path349"
   style="fill:rgb(235,196,81);"
   d="M1503.25,972.91L1501.63,973.593L1355.28,628.137L1356.9,627.454" />
                        </g>
                        <g
   id="g355"
   transform="matrix(1,0,0,1,1,320.774)">
                            <path
   id="path353"
   style="fill:rgb(235,197,83);"
   d="M1502.17,972.454L1500.56,973.137L1354.21,627.682L1355.82,626.998" />
                        </g>
                        <g
   id="g359"
   transform="matrix(1,0,0,1,1,321.686)">
                            <path
   id="path357"
   style="fill:rgb(236,198,84);"
   d="M1501.09,971.998L1499.48,972.682L1353.13,627.226L1354.74,626.542" />
                        </g>
                        <g
   id="g363"
   transform="matrix(1,0,0,1,1,322.597)">
                            <path
   id="path361"
   style="fill:rgb(238,200,85);"
   d="M1500.02,971.542L1498.41,972.226L1352.06,626.77L1353.67,626.087" />
                        </g>
                        <g
   id="g367"
   transform="matrix(1,0,0,1,1,323.508)">
                            <path
   id="path365"
   style="fill:rgb(238,201,85);"
   d="M1498.94,971.087L1497.33,971.77L1350.98,626.314L1352.59,625.631" />
                        </g>
                        <g
   id="g371"
   transform="matrix(1,0,0,1,1,324.42)">
                            <path
   id="path369"
   style="fill:rgb(239,202,86);"
   d="M1497.87,970.631L1496.25,971.315L1349.9,625.859L1351.52,625.175" />
                        </g>
                        <g
   id="g375"
   transform="matrix(1,0,0,1,1,325.331)">
                            <path
   id="path373"
   style="fill:rgb(239,202,87);"
   d="M1496.79,970.176L1495.18,970.859L1348.83,625.403L1350.44,624.72" />
                        </g>
                        <g
   id="g379"
   transform="matrix(1,0,0,1,1,326.242)">
                            <path
   id="path377"
   style="fill:rgb(240,203,88);"
   d="M1495.72,969.72L1494.1,970.404L1347.75,624.948L1349.37,624.264" />
                        </g>
                        <g
   id="g383"
   transform="matrix(1,0,0,1,1,327.154)">
                            <path
   id="path381"
   style="fill:rgb(240,204,88);"
   d="M1494.64,969.264L1493.03,969.948L1346.68,624.492L1348.29,623.809" />
                        </g>
                        <g
   id="g387"
   transform="matrix(1,0,0,1,1,328.065)">
                            <path
   id="path385"
   style="fill:rgb(240,205,89);"
   d="M1493.57,968.809L1491.95,969.492L1345.6,624.036L1347.22,623.353" />
                        </g>
                        <g
   id="g391"
   transform="matrix(1,0,0,1,1,328.976)">
                            <path
   id="path389"
   style="fill:rgb(241,205,90);"
   d="M1492.49,968.353L1490.88,969.037L1344.53,623.581L1346.14,622.897" />
                        </g>
                        <g
   id="g395"
   transform="matrix(1,0,0,1,1,329.887)">
                            <path
   id="path393"
   style="fill:rgb(242,206,91);"
   d="M1491.41,967.898L1489.8,968.581L1343.45,623.125L1345.07,622.442" />
                        </g>
                    </g>
                </g>
            </g>
            <g
   id="g405"
   transform="matrix(4.16667,0,0,4.16667,-6867.86,-3394.39)">
                <path
   id="path403"
   style="fill:white;fill-rule:nonzero;"
   d="M1530.35,866.472L1440.88,777.003L1440.88,863.856L1504.05,863.856L1506.64,866.44L1438.3,866.44L1438.3,770.764L1440.5,772.97L1534.01,866.472L1530.35,866.472Z" />
            </g>
            <g
   id="g409"
   transform="matrix(4.16667,0,0,4.16667,-6867.86,-3132.03)">
                <path
   id="path407"
   style="fill:white;"
   d="M1578.58,778.966C1578.22,778.978 1577.67,779.077 1576.93,779.257C1576.19,779.438 1575.66,779.623 1575.34,779.822C1574.88,780.12 1574.58,780.704 1574.42,781.566C1574.25,782.423 1574.17,783.515 1574.17,784.837L1574.17,803.724L1572.52,803.724L1556.07,782.609L1556.07,795.916C1556.07,797.406 1556.16,798.549 1556.36,799.348C1556.56,800.148 1556.86,800.719 1557.28,801.055C1557.57,801.322 1558.17,801.57 1559.09,801.799C1560.01,802.035 1560.61,802.153 1560.91,802.165L1560.91,803.469L1549.78,803.469L1549.78,802.165C1550.13,802.141 1550.71,802.023 1551.53,801.812C1552.34,801.601 1552.85,801.409 1553.06,801.24C1553.51,800.9 1553.81,800.384 1553.98,799.684C1554.14,798.987 1554.23,797.803 1554.23,796.115L1554.23,783.415C1554.23,782.857 1554.12,782.304 1553.92,781.746C1553.72,781.188 1553.44,780.759 1553.09,780.456C1552.64,780.058 1552.02,779.71 1551.23,779.432C1550.44,779.145 1549.81,778.99 1549.33,778.966L1549.33,777.662L1557.06,777.662L1572.33,797.337L1572.33,785.073C1572.33,783.57 1572.23,782.417 1572.03,781.609C1571.82,780.803 1571.53,780.269 1571.14,780.003C1570.79,779.772 1570.2,779.548 1569.39,779.332C1568.58,779.108 1567.97,778.99 1567.55,778.966L1567.55,777.662L1578.58,777.662L1578.58,778.966ZM1842.79,770.169L1837.1,774.306L1838.16,775.767L1844.48,772.488L1842.79,770.169ZM1592.68,803.469L1580.45,803.469L1580.45,802.165C1580.8,802.141 1581.3,802.104 1581.95,802.054C1582.6,802.01 1583.05,801.936 1583.32,801.837C1583.75,801.683 1584.05,801.464 1584.24,801.191C1584.43,800.919 1584.53,800.54 1584.53,800.055L1584.53,781.38C1584.53,780.958 1584.46,780.604 1584.32,780.318C1584.18,780.033 1583.85,779.798 1583.32,779.598C1582.94,779.456 1582.46,779.319 1581.88,779.195C1581.3,779.065 1580.83,778.99 1580.45,778.966L1580.45,777.662L1592.68,777.662L1592.68,778.966C1592.29,778.978 1591.81,779.022 1591.27,779.102C1590.72,779.183 1590.24,779.282 1589.84,779.4C1589.34,779.548 1589.03,779.785 1588.86,780.108C1588.69,780.436 1588.61,780.803 1588.61,781.2L1588.61,799.857C1588.61,800.26 1588.7,800.614 1588.89,800.919C1589.07,801.229 1589.38,801.478 1589.84,801.657C1590.1,801.756 1590.53,801.862 1591.14,801.974C1591.75,802.091 1592.27,802.153 1592.68,802.165L1592.68,803.469ZM1618.89,795.872L1618.38,803.469L1595.86,803.469L1595.86,802.165C1596.24,802.141 1596.75,802.091 1597.39,802.01C1598.03,801.931 1598.44,801.849 1598.63,801.769C1599.05,801.583 1599.33,801.346 1599.48,801.055C1599.65,800.769 1599.73,800.397 1599.73,799.95L1599.73,781.417C1599.73,781.02 1599.65,780.666 1599.52,780.356C1599.37,780.046 1599.08,779.798 1598.63,779.598C1598.29,779.443 1597.82,779.307 1597.25,779.183C1596.67,779.065 1596.2,778.99 1595.86,778.966L1595.86,777.662L1616.85,777.662L1616.85,783.9L1615.42,783.9C1615.17,782.975 1614.61,781.995 1613.77,780.958C1612.92,779.921 1612.12,779.356 1611.35,779.257C1610.95,779.213 1610.48,779.177 1609.93,779.152C1609.39,779.127 1608.77,779.115 1608.06,779.115L1603.8,779.115L1603.8,789.356L1606.86,789.356C1607.84,789.356 1608.55,789.269 1609.01,789.094C1609.46,788.915 1609.86,788.622 1610.2,788.207C1610.48,787.86 1610.72,787.388 1610.92,786.798C1611.11,786.215 1611.24,785.657 1611.31,785.135L1612.74,785.135L1612.74,795.246L1611.31,795.246C1611.26,794.662 1611.12,794.048 1610.9,793.401C1610.67,792.75 1610.44,792.279 1610.2,791.993C1609.8,791.515 1609.35,791.211 1608.85,791.062C1608.35,790.92 1607.68,790.845 1606.86,790.845L1603.8,790.845L1603.8,798.585C1603.8,799.36 1603.86,799.969 1603.97,800.416C1604.09,800.863 1604.31,801.204 1604.64,801.434C1604.97,801.663 1605.43,801.812 1606,801.881C1606.57,801.949 1607.39,801.98 1608.44,801.98L1610.11,801.98C1610.79,801.98 1611.37,801.955 1611.84,801.905C1612.33,801.855 1612.83,801.769 1613.35,801.644C1613.86,801.514 1614.23,801.34 1614.44,801.124C1615.02,800.546 1615.64,799.665 1616.29,798.479C1616.93,797.3 1617.34,796.425 1617.51,795.872L1618.89,795.872ZM1648.15,803.469L1640.84,803.469C1639.22,801.055 1637.75,798.969 1636.44,797.213C1635.14,795.457 1633.72,793.644 1632.19,791.776L1629.41,791.776L1629.41,799.95C1629.41,800.372 1629.48,800.745 1629.62,801.068C1629.76,801.39 1630.06,801.632 1630.52,801.799C1630.75,801.887 1631.15,801.968 1631.73,802.042C1632.3,802.11 1632.79,802.153 1633.18,802.165L1633.18,803.469L1621.69,803.469L1621.69,802.165C1622,802.141 1622.44,802.098 1623.03,802.042C1623.61,801.98 1624.01,801.899 1624.24,801.799C1624.63,801.644 1624.9,801.415 1625.07,801.111C1625.25,800.807 1625.33,800.422 1625.33,799.95L1625.33,781.311C1625.33,780.883 1625.27,780.511 1625.14,780.182C1625.01,779.853 1624.71,779.605 1624.24,779.438C1623.92,779.332 1623.51,779.226 1623,779.14C1622.49,779.046 1622.05,778.99 1621.69,778.966L1621.69,777.662L1634.24,777.662C1635.39,777.662 1636.47,777.775 1637.47,777.998C1638.48,778.22 1639.39,778.58 1640.21,779.083C1641.01,779.567 1641.63,780.201 1642.11,780.983C1642.58,781.765 1642.82,782.708 1642.82,783.807C1642.82,784.806 1642.66,785.68 1642.34,786.446C1642.02,787.209 1641.55,787.872 1640.92,788.43C1640.35,788.952 1639.65,789.405 1638.85,789.784C1638.05,790.168 1637.16,790.492 1636.19,790.758C1637.53,792.441 1638.64,793.855 1639.53,795.01C1640.42,796.158 1641.5,797.561 1642.79,799.206C1643.35,799.932 1643.86,800.465 1644.31,800.814C1644.76,801.16 1645.21,801.439 1645.66,801.657C1645.99,801.812 1646.41,801.936 1646.9,802.023C1647.4,802.104 1647.81,802.153 1648.15,802.165L1648.15,803.469ZM1638.07,784.234C1638.07,782.678 1637.6,781.436 1636.65,780.523C1635.71,779.61 1634.38,779.152 1632.66,779.152L1629.41,779.152L1629.41,790.212L1631.91,790.212C1633.67,790.212 1635.14,789.678 1636.31,788.605C1637.48,787.531 1638.07,786.079 1638.07,784.234ZM1676.64,778.966C1676.28,778.978 1675.76,779.052 1675.07,779.183C1674.38,779.319 1673.82,779.518 1673.39,779.785C1672.95,780.064 1672.65,780.641 1672.49,781.51C1672.32,782.386 1672.24,783.454 1672.24,784.712L1672.24,795.935C1672.24,797.368 1671.92,798.61 1671.31,799.665C1670.68,800.719 1669.85,801.589 1668.84,802.265C1667.83,802.923 1666.76,803.388 1665.65,803.675C1664.53,803.959 1663.47,804.103 1662.45,804.103C1660.81,804.103 1659.36,803.898 1658.08,803.494C1656.81,803.084 1655.74,802.539 1654.87,801.849C1654.02,801.154 1653.37,800.366 1652.94,799.472C1652.5,798.585 1652.29,797.654 1652.29,796.679L1652.29,781.423C1652.29,780.995 1652.22,780.641 1652.07,780.356C1651.92,780.07 1651.62,779.809 1651.18,779.567C1650.86,779.393 1650.45,779.257 1649.95,779.158C1649.45,779.052 1649.05,778.99 1648.73,778.966L1648.73,777.662L1660.04,777.662L1660.04,778.966C1659.68,778.978 1659.23,779.033 1658.69,779.127C1658.15,779.226 1657.75,779.319 1657.49,779.4C1657.06,779.548 1656.77,779.791 1656.63,780.126C1656.48,780.468 1656.4,780.84 1656.4,781.237L1656.4,795.494C1656.4,796.182 1656.48,796.909 1656.65,797.667C1656.8,798.423 1657.12,799.124 1657.59,799.782C1658.09,800.447 1658.76,800.993 1659.62,801.415C1660.47,801.845 1661.65,802.054 1663.14,802.054C1664.54,802.054 1665.72,801.845 1666.67,801.415C1667.62,800.993 1668.37,800.435 1668.92,799.745C1669.44,799.094 1669.82,798.404 1670.03,797.69C1670.25,796.977 1670.36,796.257 1670.36,795.525L1670.36,784.949C1670.36,783.602 1670.25,782.503 1670.05,781.647C1669.85,780.79 1669.55,780.232 1669.15,779.964C1668.7,779.66 1668.1,779.425 1667.33,779.257C1666.55,779.083 1665.96,778.99 1665.56,778.966L1665.56,777.662L1676.64,777.662L1676.64,778.966ZM1690.79,804.065C1689.16,804.065 1687.61,803.76 1686.13,803.159C1684.64,802.551 1683.33,801.676 1682.17,800.54C1681.04,799.398 1680.14,798.007 1679.46,796.363C1678.78,794.724 1678.44,792.875 1678.44,790.814C1678.44,788.753 1678.78,786.879 1679.44,785.204C1680.1,783.521 1681.02,782.081 1682.19,780.865C1683.35,779.667 1684.72,778.742 1686.3,778.084C1687.88,777.432 1689.58,777.104 1691.37,777.104C1692.71,777.104 1693.92,777.259 1695.01,777.576C1696.09,777.893 1697.12,778.333 1698.1,778.897L1698.88,777.662L1700.42,777.662L1700.59,786.86L1699.02,786.86C1698.82,785.967 1698.51,784.999 1698.11,783.949C1697.7,782.907 1697.22,782.019 1696.67,781.294C1696.06,780.473 1695.34,779.828 1694.5,779.363C1693.65,778.897 1692.69,778.668 1691.61,778.668C1690.37,778.668 1689.22,778.928 1688.16,779.45C1687.1,779.971 1686.18,780.74 1685.4,781.758C1684.66,782.739 1684.08,783.987 1683.66,785.501C1683.24,787.015 1683.03,788.704 1683.03,790.572C1683.03,792.216 1683.25,793.725 1683.69,795.102C1684.13,796.481 1684.76,797.685 1685.57,798.728C1686.39,799.757 1687.36,800.564 1688.47,801.141C1689.58,801.725 1690.83,802.017 1692.2,802.017C1693.24,802.017 1694.19,801.862 1695.05,801.551C1695.92,801.24 1696.67,800.831 1697.31,800.323C1697.94,799.788 1698.51,799.18 1698.99,798.503C1699.47,797.822 1699.87,797.082 1700.18,796.282L1701.61,796.934C1700.51,799.497 1699.06,801.322 1697.25,802.42C1695.44,803.52 1693.28,804.065 1690.79,804.065ZM1732.11,803.469L1720.83,803.469L1720.83,802.165C1721.14,802.141 1721.58,802.104 1722.16,802.054C1722.74,802.01 1723.14,801.936 1723.36,801.837C1723.74,801.694 1724.02,801.471 1724.2,801.173C1724.38,800.881 1724.47,800.497 1724.47,800.025L1724.47,790.845L1711.73,790.845L1711.73,799.82C1711.73,800.249 1711.8,800.601 1711.95,800.894C1712.1,801.185 1712.39,801.439 1712.82,801.657C1713.04,801.769 1713.42,801.874 1713.98,801.986C1714.53,802.091 1714.97,802.153 1715.29,802.165L1715.29,803.469L1704.02,803.469L1704.02,802.165C1704.32,802.141 1704.77,802.104 1705.35,802.054C1705.93,802.01 1706.33,801.936 1706.54,801.837C1706.93,801.694 1707.21,801.471 1707.38,801.173C1707.56,800.881 1707.65,800.497 1707.65,800.025L1707.65,781.417C1707.65,781.033 1707.57,780.678 1707.4,780.356C1707.24,780.033 1706.95,779.785 1706.54,779.598C1706.2,779.443 1705.78,779.307 1705.29,779.183C1704.8,779.065 1704.37,778.99 1704.02,778.966L1704.02,777.662L1715.29,777.662L1715.29,778.966C1714.93,778.978 1714.49,779.033 1713.98,779.127C1713.46,779.226 1713.08,779.319 1712.82,779.4C1712.39,779.548 1712.1,779.791 1711.95,780.132C1711.8,780.468 1711.73,780.84 1711.73,781.237L1711.73,789.244L1724.47,789.244L1724.47,781.423C1724.47,781.033 1724.38,780.678 1724.22,780.356C1724.06,780.033 1723.77,779.785 1723.36,779.605C1723.01,779.443 1722.59,779.307 1722.1,779.183C1721.62,779.065 1721.19,778.99 1720.83,778.966L1720.83,777.662L1732.11,777.662L1732.11,778.966C1731.75,778.978 1731.31,779.033 1730.79,779.127C1730.28,779.226 1729.89,779.319 1729.64,779.4C1729.2,779.548 1728.91,779.791 1728.77,780.126C1728.62,780.468 1728.55,780.84 1728.55,781.237L1728.55,799.82C1728.55,800.249 1728.62,800.601 1728.77,800.894C1728.91,801.185 1729.2,801.439 1729.64,801.657C1729.85,801.769 1730.24,801.874 1730.79,801.986C1731.35,802.091 1731.79,802.153 1732.11,802.165L1732.11,803.469ZM1757.88,780.74C1759.08,781.926 1760.01,783.36 1760.69,785.042C1761.37,786.718 1761.7,788.573 1761.7,790.609C1761.7,792.658 1761.36,794.52 1760.67,796.195C1759.98,797.865 1759.03,799.292 1757.8,800.465C1756.62,801.632 1755.24,802.526 1753.67,803.159C1752.1,803.786 1750.43,804.103 1748.65,804.103C1746.77,804.103 1745.02,803.767 1743.42,803.091C1741.82,802.42 1740.44,801.484 1739.29,800.285C1738.15,799.107 1737.24,797.678 1736.59,796.003C1735.93,794.321 1735.6,792.527 1735.6,790.609C1735.6,788.518 1735.95,786.643 1736.63,785.004C1737.33,783.36 1738.27,781.938 1739.49,780.74C1740.68,779.548 1742.08,778.643 1743.67,778.009C1745.26,777.382 1746.91,777.067 1748.65,777.067C1750.45,777.067 1752.15,777.389 1753.74,778.029C1755.34,778.674 1756.71,779.574 1757.88,780.74ZM1755.03,799.044C1755.75,797.939 1756.26,796.686 1756.59,795.289C1756.92,793.893 1757.08,792.335 1757.08,790.609C1757.08,788.84 1756.9,787.215 1756.53,785.73C1756.17,784.253 1755.64,782.988 1754.94,781.945C1754.23,780.914 1753.35,780.108 1752.29,779.531C1751.23,778.953 1750.02,778.668 1748.65,778.668C1747.12,778.668 1745.82,779.003 1744.75,779.667C1743.68,780.337 1742.8,781.231 1742.12,782.348C1741.49,783.415 1741.01,784.663 1740.7,786.097C1740.38,787.531 1740.23,789.032 1740.23,790.609C1740.23,792.36 1740.39,793.936 1740.72,795.346C1741.06,796.754 1741.58,798.001 1742.3,799.094C1742.98,800.167 1743.85,801 1744.9,801.601C1745.95,802.203 1747.2,802.501 1748.65,802.501C1750.02,802.501 1751.25,802.197 1752.35,801.589C1753.45,800.987 1754.34,800.137 1755.03,799.044ZM1797.82,803.469L1785.82,803.469L1785.82,802.165C1786.26,802.153 1786.81,802.11 1787.5,802.042C1788.18,801.968 1788.65,801.862 1788.9,801.732C1789.3,801.501 1789.59,801.234 1789.78,800.937C1789.96,800.639 1790.05,800.266 1790.05,799.82L1790.05,781.064L1789.76,781.064L1780.49,803.06L1779.53,803.06L1770.7,780.611L1770.45,780.611L1770.45,796.003C1770.45,797.492 1770.55,798.628 1770.75,799.404C1770.95,800.18 1771.25,800.738 1771.66,801.073C1771.94,801.328 1772.52,801.57 1773.4,801.799C1774.28,802.035 1774.86,802.153 1775.12,802.165L1775.12,803.469L1764.17,803.469L1764.17,802.165C1764.74,802.116 1765.34,802.029 1765.98,801.893C1766.61,801.762 1767.1,801.558 1767.44,801.291C1767.89,800.956 1768.2,800.435 1768.36,799.733C1768.53,799.031 1768.61,797.852 1768.61,796.208L1768.61,783.019C1768.61,782.255 1768.51,781.628 1768.32,781.144C1768.13,780.66 1767.86,780.269 1767.5,779.964C1767.11,779.636 1766.62,779.393 1766.04,779.238C1765.48,779.077 1764.91,778.99 1764.34,778.966L1764.34,777.662L1773.59,777.662L1781.37,797.021L1788.02,780.828C1788.26,780.232 1788.47,779.61 1788.65,778.966C1788.82,778.313 1788.91,777.88 1788.92,777.662L1797.78,777.662L1797.78,778.966C1797.43,778.978 1796.97,779.033 1796.41,779.127C1795.86,779.226 1795.45,779.319 1795.2,779.4C1794.77,779.548 1794.47,779.791 1794.32,780.126C1794.17,780.468 1794.09,780.84 1794.09,781.237L1794.09,799.82C1794.09,800.249 1794.17,800.601 1794.32,800.894C1794.47,801.185 1794.77,801.439 1795.2,801.657C1795.43,801.781 1795.84,801.893 1796.42,801.993C1797.01,802.098 1797.48,802.153 1797.82,802.165L1797.82,803.469ZM1823.39,780.74C1824.59,781.926 1825.52,783.36 1826.2,785.042C1826.88,786.718 1827.22,788.573 1827.22,790.609C1827.22,792.658 1826.87,794.52 1826.18,796.195C1825.49,797.865 1824.54,799.292 1823.31,800.465C1822.13,801.632 1820.75,802.526 1819.18,803.159C1817.61,803.786 1815.94,804.103 1814.16,804.103C1812.28,804.103 1810.53,803.767 1808.93,803.091C1807.33,802.42 1805.95,801.484 1804.8,800.285C1803.66,799.107 1802.75,797.678 1802.1,796.003C1801.44,794.321 1801.11,792.527 1801.11,790.609C1801.11,788.518 1801.46,786.643 1802.14,785.004C1802.84,783.36 1803.78,781.938 1805,780.74C1806.19,779.548 1807.59,778.643 1809.18,778.009C1810.77,777.382 1812.43,777.067 1814.16,777.067C1815.96,777.067 1817.66,777.389 1819.25,778.029C1820.85,778.674 1822.23,779.574 1823.39,780.74ZM1820.54,799.044C1821.26,797.939 1821.78,796.686 1822.1,795.289C1822.43,793.893 1822.59,792.335 1822.59,790.609C1822.59,788.84 1822.41,787.215 1822.04,785.73C1821.68,784.253 1821.15,782.988 1820.45,781.945C1819.74,780.914 1818.86,780.108 1817.8,779.531C1816.74,778.953 1815.53,778.668 1814.16,778.668C1812.63,778.668 1811.33,779.003 1810.26,779.667C1809.19,780.337 1808.31,781.231 1807.63,782.348C1807,783.415 1806.52,784.663 1806.21,786.097C1805.89,787.531 1805.74,789.032 1805.74,790.609C1805.74,792.36 1805.9,793.936 1806.23,795.346C1806.57,796.754 1807.09,798.001 1807.81,799.094C1808.49,800.167 1809.36,801 1810.41,801.601C1811.46,802.203 1812.71,802.501 1814.16,802.501C1815.53,802.501 1816.76,802.197 1817.86,801.589C1818.96,800.987 1819.85,800.137 1820.54,799.044ZM1847.53,791.621C1848.1,792.228 1848.53,792.893 1848.8,793.613C1849.08,794.333 1849.21,795.17 1849.21,796.132C1849.21,798.411 1848.32,800.292 1846.55,801.769C1844.78,803.252 1842.58,803.991 1839.95,803.991C1838.74,803.991 1837.53,803.811 1836.32,803.451C1835.1,803.091 1834.06,802.657 1833.17,802.141L1832.35,803.469L1830.82,803.469L1830.56,794.644L1832.1,794.644C1832.42,795.736 1832.79,796.723 1833.23,797.604C1833.65,798.485 1834.21,799.311 1834.92,800.074C1835.58,800.794 1836.36,801.365 1837.24,801.787C1838.13,802.215 1839.16,802.426 1840.33,802.426C1841.22,802.426 1841.98,802.314 1842.64,802.098C1843.29,801.881 1843.83,801.57 1844.23,801.167C1844.65,800.763 1844.95,800.292 1845.14,799.752C1845.34,799.211 1845.44,798.585 1845.44,797.878C1845.44,796.848 1845.14,795.885 1844.52,794.997C1843.91,794.103 1843,793.426 1841.79,792.968C1840.96,792.651 1840.01,792.304 1838.94,791.919C1837.87,791.54 1836.95,791.18 1836.17,790.838C1834.64,790.181 1833.45,789.325 1832.61,788.263C1831.76,787.202 1831.34,785.817 1831.34,784.105C1831.34,783.125 1831.55,782.212 1831.97,781.361C1832.39,780.511 1832.99,779.753 1833.77,779.083C1834.51,778.458 1835.38,777.96 1836.39,777.6C1837.39,777.246 1838.44,777.067 1839.54,777.067C1840.79,777.067 1841.91,777.252 1842.9,777.619C1843.89,777.985 1844.79,778.407 1845.61,778.897L1846.39,777.662L1847.92,777.662L1848.08,786.228L1846.53,786.228C1846.25,785.24 1845.93,784.297 1845.58,783.397C1845.23,782.497 1844.78,781.678 1844.22,780.951C1843.67,780.244 1842.99,779.68 1842.2,779.263C1841.41,778.842 1840.44,778.63 1839.3,778.63C1838.09,778.63 1837.06,779.003 1836.2,779.748C1835.34,780.486 1834.92,781.398 1834.92,782.473C1834.92,783.583 1835.19,784.508 1835.74,785.248C1836.28,785.979 1837.08,786.581 1838.13,787.053C1839.06,787.481 1839.98,787.846 1840.87,788.151C1841.77,788.462 1842.64,788.797 1843.48,789.145C1844.24,789.461 1844.98,789.821 1845.68,790.218C1846.4,790.621 1847.01,791.086 1847.53,791.621ZM1864.57,804.065C1862.95,804.065 1861.39,803.76 1859.91,803.159C1858.42,802.551 1857.11,801.676 1855.96,800.54C1854.82,799.398 1853.92,798.007 1853.24,796.363C1852.57,794.724 1852.23,792.875 1852.23,790.814C1852.23,788.753 1852.56,786.879 1853.22,785.204C1853.89,783.521 1854.8,782.081 1855.98,780.865C1857.13,779.667 1858.51,778.742 1860.09,778.084C1861.67,777.432 1863.36,777.104 1865.16,777.104C1866.5,777.104 1867.71,777.259 1868.79,777.576C1869.87,777.893 1870.91,778.333 1871.89,778.897L1872.67,777.662L1874.21,777.662L1874.38,786.86L1872.81,786.86C1872.61,785.967 1872.3,784.999 1871.89,783.949C1871.48,782.907 1871.01,782.019 1870.45,781.294C1869.85,780.473 1869.12,779.828 1868.28,779.363C1867.44,778.897 1866.48,778.668 1865.39,778.668C1864.16,778.668 1863.01,778.928 1861.94,779.45C1860.89,779.971 1859.96,780.74 1859.19,781.758C1858.45,782.739 1857.87,783.987 1857.45,785.501C1857.03,787.015 1856.82,788.704 1856.82,790.572C1856.82,792.216 1857.04,793.725 1857.48,795.102C1857.91,796.481 1858.54,797.685 1859.36,798.728C1860.17,799.757 1861.14,800.564 1862.25,801.141C1863.37,801.725 1864.62,802.017 1865.99,802.017C1867.02,802.017 1867.97,801.862 1868.84,801.551C1869.7,801.24 1870.45,800.831 1871.1,800.323C1871.73,799.788 1872.29,799.18 1872.78,798.503C1873.26,797.822 1873.66,797.082 1873.96,796.282L1875.39,796.934C1874.3,799.497 1872.85,801.322 1871.03,802.42C1869.22,803.52 1867.07,804.065 1864.57,804.065ZM1889.67,803.469L1877.44,803.469L1877.44,802.165C1877.79,802.141 1878.28,802.104 1878.94,802.054C1879.58,802.01 1880.04,801.936 1880.31,801.837C1880.73,801.683 1881.04,801.464 1881.23,801.191C1881.42,800.919 1881.52,800.54 1881.52,800.055L1881.52,781.38C1881.52,780.958 1881.44,780.604 1881.31,780.318C1881.16,780.033 1880.84,779.798 1880.31,779.598C1879.93,779.456 1879.45,779.319 1878.87,779.195C1878.28,779.065 1877.81,778.99 1877.44,778.966L1877.44,777.662L1889.67,777.662L1889.67,778.966C1889.28,778.978 1888.8,779.022 1888.25,779.102C1887.7,779.183 1887.23,779.282 1886.82,779.4C1886.33,779.548 1886.01,779.785 1885.84,780.108C1885.68,780.436 1885.59,780.803 1885.59,781.2L1885.59,799.857C1885.59,800.26 1885.68,800.614 1885.87,800.919C1886.06,801.229 1886.37,801.478 1886.82,801.657C1887.09,801.756 1887.52,801.862 1888.13,801.974C1888.74,802.091 1889.25,802.153 1889.67,802.165L1889.67,803.469Z" />
            </g>
            <g
   id="g413"
   transform="matrix(4.16667,0,0,4.16667,-6867.86,-3489.97)">
                <path
   id="path411"
   style="fill:white;"
   d="M1601.88,809.516C1601.45,809.533 1600.95,809.631 1600.38,809.816C1599.81,809.992 1599.28,810.23 1598.81,810.521C1598.2,810.901 1597.71,811.341 1597.34,811.827C1596.97,812.321 1596.65,813.008 1596.37,813.881C1595.16,817.86 1593.74,822.508 1592.11,827.825C1590.49,833.135 1588.74,838.796 1586.87,844.811L1584.49,844.811L1575.24,816.58L1565.6,844.811L1563.33,844.811C1561.63,838.779 1559.86,832.526 1558.04,826.044C1556.21,819.552 1554.98,815.214 1554.37,813.008C1554.21,812.471 1553.98,811.995 1553.68,811.579C1553.38,811.166 1552.97,810.795 1552.45,810.443C1552.02,810.151 1551.52,809.931 1550.94,809.79C1550.36,809.639 1549.84,809.552 1549.37,809.516L1549.37,807.664L1564.34,807.664L1564.34,809.516C1563.03,809.586 1561.92,809.71 1560.99,809.903C1560.07,810.089 1559.6,810.416 1559.6,810.857C1559.6,811.033 1559.63,811.263 1559.68,811.545C1559.74,811.827 1559.78,812.056 1559.82,812.233C1560.21,813.741 1560.91,816.245 1561.92,819.738C1562.93,823.221 1564.42,828.45 1566.4,835.41L1575.55,808.184L1578.08,808.184L1587.31,836C1588.55,831.732 1589.62,827.993 1590.51,824.8C1591.41,821.608 1592.15,818.873 1592.73,816.598C1593.14,814.993 1593.41,813.899 1593.51,813.299C1593.61,812.709 1593.66,812.206 1593.66,811.792C1593.66,811.2 1593.26,810.716 1592.47,810.319C1591.66,809.922 1590.37,809.658 1588.58,809.516L1588.58,807.664L1601.88,807.664L1601.88,809.516ZM1689.9,845.969C1690.24,845.357 1690.65,844.813 1691.13,844.335L1682.49,844.335L1682.49,842.483C1683.83,842.395 1684.94,842.227 1685.84,841.963C1686.73,841.707 1687.17,841.389 1687.17,841.011C1687.17,840.851 1687.15,840.666 1687.12,840.445C1687.08,840.216 1687.03,840.022 1686.97,839.846L1683.91,831.635L1671.07,831.635C1670.59,832.844 1670.2,833.893 1669.89,834.784C1669.59,835.683 1669.32,836.504 1669.08,837.261C1668.86,838.003 1668.7,838.612 1668.61,839.07C1668.53,839.537 1668.49,839.916 1668.49,840.207C1668.49,840.896 1669.03,841.434 1670.11,841.813C1671.2,842.191 1672.42,842.412 1673.78,842.483L1673.78,844.335L1659.99,844.335L1659.99,842.483C1660.44,842.448 1660.99,842.35 1661.66,842.183C1662.34,842.024 1662.89,841.804 1663.32,841.531C1664.01,841.063 1664.54,840.578 1664.92,840.066C1665.3,839.556 1665.67,838.858 1666.03,837.959C1667.87,833.364 1669.91,828.195 1672.13,822.455C1674.35,816.722 1676.33,811.614 1678.08,807.135L1680.14,807.135L1692.36,838.761C1692.62,839.431 1692.91,839.979 1693.24,840.393C1693.56,840.808 1694.02,841.204 1694.61,841.6C1695.01,841.848 1695.52,842.051 1696.15,842.21C1696.8,842.377 1697.33,842.465 1697.76,842.483L1697.76,844.335L1695.03,844.335C1694.78,844.501 1694.49,844.669 1694.19,844.871C1693.58,845.284 1693.03,845.836 1692.53,846.523L1693.61,847.119C1694.55,847.642 1695.14,848.29 1695.4,849.072C1695.65,849.861 1695.55,850.673 1695.09,851.502C1694.29,852.937 1692.42,853.358 1690.99,852.568C1689.78,851.897 1689.1,850.99 1688.94,849.84C1688.78,848.697 1689.1,847.404 1689.9,845.969ZM1635.04,809.516C1634.75,809.533 1634.28,809.648 1633.64,809.869C1633,810.08 1632.55,810.292 1632.27,810.495C1631.6,810.909 1631.14,811.227 1630.9,811.456C1630.66,811.677 1630.19,812.258 1629.51,813.211C1628.17,815.099 1626.92,817.021 1625.79,818.97C1624.65,820.911 1623.23,823.38 1621.53,826.379C1620.88,827.48 1620.47,828.363 1620.26,829.042C1620.05,829.713 1619.95,830.682 1619.95,831.953L1619.95,838.946C1619.95,839.563 1620.07,840.102 1620.32,840.56C1620.57,841.019 1621,841.38 1621.6,841.654C1621.97,841.795 1622.61,841.963 1623.54,842.156C1624.47,842.36 1625.22,842.465 1625.79,842.483L1625.79,844.335L1608.63,844.335L1608.63,842.483C1609.12,842.448 1609.84,842.386 1610.8,842.289C1611.76,842.191 1612.44,842.068 1612.82,841.919C1613.44,841.654 1613.86,841.301 1614.09,840.859C1614.33,840.41 1614.44,839.855 1614.44,839.202L1614.44,830.303C1614.44,830.03 1614.28,829.527 1613.94,828.795C1613.61,828.063 1613.2,827.244 1612.74,826.352C1611.71,824.35 1610.56,822.199 1609.3,819.87C1608.04,817.55 1606.95,815.557 1606.02,813.909C1605.46,812.92 1604.95,812.188 1604.51,811.686C1604.07,811.184 1603.57,810.751 1603,810.372C1602.58,810.107 1602.09,809.913 1601.51,809.772C1600.93,809.639 1600.41,809.552 1599.94,809.516L1599.94,807.664L1615.58,807.664L1615.58,809.516C1613.83,809.552 1612.58,809.675 1611.86,809.877C1611.14,810.08 1610.78,810.38 1610.78,810.76C1610.78,810.857 1610.83,811.041 1610.93,811.297C1611.03,811.553 1611.18,811.88 1611.37,812.277C1611.6,812.727 1611.86,813.238 1612.17,813.811C1612.48,814.393 1612.78,814.948 1613.05,815.478C1613.86,817.013 1614.68,818.539 1615.53,820.064C1616.38,821.581 1617.48,823.565 1618.84,826.009C1621.54,821.66 1623.61,818.265 1625.03,815.831C1626.45,813.397 1627.15,811.933 1627.15,811.456C1627.15,811.06 1627.01,810.742 1626.72,810.495C1626.42,810.257 1626.03,810.062 1625.56,809.931C1625.05,809.79 1624.52,809.701 1623.92,809.658C1623.34,809.613 1622.8,809.57 1622.3,809.516L1622.3,807.664L1635.04,807.664L1635.04,809.516ZM1659.68,809.516C1659.19,809.533 1658.6,809.596 1657.89,809.71C1657.16,809.825 1656.57,809.966 1656.06,810.133C1655.48,810.346 1655.08,810.689 1654.87,811.175C1654.67,811.651 1654.56,812.18 1654.56,812.744L1654.56,834.484C1654.56,835.621 1654.34,836.829 1653.88,838.1C1653.42,839.378 1652.75,840.516 1651.87,841.513C1650.85,842.686 1649.64,843.594 1648.23,844.255C1646.83,844.908 1645.21,845.234 1643.41,845.234C1640.59,845.234 1638.31,844.441 1636.55,842.862C1634.8,841.274 1633.93,839.149 1633.93,836.477C1633.93,835.313 1634.23,834.272 1634.83,833.364C1635.43,832.464 1636.32,832.013 1637.48,832.013C1638.51,832.013 1639.35,832.296 1639.98,832.879C1640.61,833.452 1640.92,834.219 1640.92,835.163C1640.92,835.719 1640.81,836.265 1640.58,836.821C1640.36,837.368 1640.11,837.862 1639.84,838.285C1639.58,838.682 1639.28,839.149 1638.95,839.687C1638.63,840.216 1638.39,840.701 1638.26,841.133C1638.62,841.698 1639.18,842.201 1639.95,842.634C1640.72,843.065 1641.75,843.277 1643.05,843.277C1644.31,843.277 1645.34,842.986 1646.14,842.412C1646.94,841.83 1647.54,841.063 1647.95,840.102C1648.33,839.202 1648.6,838.1 1648.76,836.795C1648.93,835.48 1649.01,834.017 1649.01,832.402L1649.01,813C1649.01,812.4 1648.91,811.898 1648.71,811.492C1648.51,811.086 1648.11,810.734 1647.48,810.416C1646.95,810.143 1646.28,809.931 1645.48,809.79C1644.68,809.639 1644.03,809.552 1643.5,809.516L1643.5,807.664L1659.68,807.664L1659.68,809.516ZM1682.98,829.359L1677.42,815.116L1671.97,829.359L1682.98,829.359ZM1728.87,817.612L1727.09,817.612C1726.93,816.995 1726.65,816.254 1726.25,815.399C1725.84,814.552 1725.39,813.741 1724.89,812.982C1724.37,812.188 1723.8,811.5 1723.19,810.901C1722.58,810.31 1721.99,809.966 1721.42,809.877C1720.88,809.816 1720.21,809.763 1719.4,809.728C1718.59,809.693 1717.84,809.675 1717.14,809.675L1715.64,809.675L1715.64,839C1715.64,839.563 1715.77,840.083 1716.01,840.56C1716.25,841.037 1716.67,841.398 1717.28,841.654C1717.59,841.777 1718.23,841.936 1719.23,842.148C1720.21,842.35 1720.98,842.465 1721.54,842.483L1721.54,844.335L1704.23,844.335L1704.23,842.483C1704.71,842.448 1705.44,842.377 1706.44,842.28C1707.43,842.174 1708.11,842.042 1708.49,841.891C1709.06,841.663 1709.47,841.345 1709.75,840.922C1710.01,840.498 1710.14,839.934 1710.14,839.229L1710.14,809.675L1708.64,809.675C1708.11,809.675 1707.44,809.684 1706.66,809.71C1705.87,809.736 1705.11,809.798 1704.38,809.877C1703.81,809.949 1703.22,810.292 1702.61,810.901C1702,811.518 1701.44,812.206 1700.92,812.982C1700.41,813.758 1699.95,814.588 1699.55,815.452C1699.15,816.325 1698.88,817.039 1698.72,817.612L1696.91,817.612L1696.91,807.664L1728.87,807.664L1728.87,817.612ZM1767.38,844.335L1757.11,844.335C1755.13,841.267 1752.93,838.223 1750.52,835.198C1748.1,832.173 1745.56,829.245 1742.91,826.396L1742.25,826.396L1742.25,839.149C1742.25,839.722 1742.35,840.226 1742.57,840.675C1742.78,841.125 1743.18,841.486 1743.74,841.76C1744.02,841.883 1744.53,842.024 1745.28,842.201C1746.03,842.368 1746.65,842.465 1747.16,842.483L1747.16,844.335L1731.93,844.335L1731.93,842.483C1732.33,842.448 1732.9,842.395 1733.66,842.324C1734.42,842.262 1734.96,842.156 1735.27,842.016C1735.79,841.795 1736.16,841.46 1736.39,841.027C1736.63,840.587 1736.74,840.057 1736.74,839.44L1736.74,813C1736.74,812.418 1736.64,811.906 1736.44,811.474C1736.25,811.05 1735.85,810.698 1735.27,810.416C1734.8,810.195 1734.25,810.001 1733.62,809.825C1732.98,809.658 1732.42,809.552 1731.93,809.516L1731.93,807.664L1747.16,807.664L1747.16,809.516C1746.67,809.533 1746.07,809.613 1745.35,809.745C1744.63,809.887 1744.09,810.019 1743.74,810.133C1743.16,810.346 1742.77,810.689 1742.55,811.166C1742.35,811.651 1742.25,812.171 1742.25,812.744L1742.25,825.39L1742.77,825.39C1744.31,824.085 1745.83,822.719 1747.33,821.299C1748.82,819.878 1750.17,818.468 1751.4,817.057C1752.76,815.487 1753.75,814.234 1754.37,813.299C1755,812.356 1755.32,811.527 1755.32,810.803C1755.32,810.548 1755.16,810.336 1754.84,810.178C1754.52,810.011 1754.15,809.877 1753.74,809.772C1753.26,809.675 1752.83,809.604 1752.45,809.578C1752.07,809.552 1751.76,809.533 1751.51,809.516L1751.51,807.664L1765.26,807.664L1765.26,809.516C1765.21,809.516 1765.1,809.525 1764.93,809.542C1764.75,809.561 1764.56,809.578 1764.34,809.596C1764.09,809.613 1763.85,809.648 1763.61,809.693C1763.38,809.745 1763.06,809.807 1762.69,809.877C1762.08,810.019 1761.46,810.23 1760.81,810.54C1760.16,810.839 1759.64,811.21 1759.23,811.659C1757.46,813.671 1755.61,815.752 1753.68,817.904C1751.75,820.055 1749.85,822.013 1747.96,823.786C1750.57,826.749 1752.73,829.298 1754.44,831.432C1756.15,833.567 1757.97,835.851 1759.9,838.276C1760.64,839.202 1761.38,839.952 1762.12,840.507C1762.86,841.063 1763.49,841.486 1764.03,841.76C1764.47,841.98 1765.03,842.156 1765.7,842.28C1766.37,842.395 1766.93,842.465 1767.38,842.483L1767.38,844.335ZM1798.16,812.038C1799.78,813.723 1801.04,815.76 1801.96,818.151C1802.87,820.531 1803.33,823.169 1803.33,826.061C1803.33,828.971 1802.86,831.617 1801.93,833.999C1801,836.371 1799.71,838.399 1798.05,840.066C1796.46,841.725 1794.6,842.994 1792.48,843.894C1790.35,844.785 1788.11,845.234 1785.7,845.234C1783.16,845.234 1780.8,844.758 1778.64,843.797C1776.48,842.845 1774.62,841.513 1773.07,839.811C1771.53,838.135 1770.3,836.107 1769.42,833.726C1768.53,831.336 1768.09,828.787 1768.09,826.061C1768.09,823.089 1768.55,820.425 1769.48,818.097C1770.41,815.76 1771.69,813.741 1773.33,812.038C1774.95,810.346 1776.83,809.057 1778.98,808.158C1781.12,807.268 1783.36,806.818 1785.7,806.818C1788.13,806.818 1790.42,807.276 1792.58,808.184C1794.73,809.102 1796.59,810.38 1798.16,812.038ZM1794.31,838.047C1795.28,836.477 1795.98,834.696 1796.42,832.711C1796.86,830.727 1797.08,828.514 1797.08,826.061C1797.08,823.548 1796.84,821.237 1796.34,819.129C1795.86,817.03 1795.13,815.232 1794.19,813.749C1793.24,812.286 1792.05,811.139 1790.62,810.319C1789.19,809.499 1787.55,809.092 1785.7,809.092C1783.63,809.092 1781.88,809.57 1780.43,810.513C1778.99,811.465 1777.8,812.735 1776.89,814.323C1776.03,815.84 1775.39,817.612 1774.96,819.649C1774.54,821.687 1774.33,823.821 1774.33,826.061C1774.33,828.548 1774.55,830.788 1775,832.79C1775.45,834.793 1776.15,836.565 1777.13,838.118C1778.05,839.643 1779.22,840.825 1780.63,841.68C1782.06,842.536 1783.74,842.958 1785.7,842.958C1787.55,842.958 1789.22,842.527 1790.7,841.663C1792.18,840.808 1793.39,839.599 1794.31,838.047ZM1857.8,809.516C1857.37,809.533 1856.87,809.631 1856.3,809.816C1855.73,809.992 1855.2,810.23 1854.73,810.521C1854.12,810.901 1853.63,811.341 1853.26,811.827C1852.89,812.321 1852.57,813.008 1852.29,813.881C1851.08,817.86 1849.65,822.508 1848.03,827.825C1846.41,833.135 1844.66,838.796 1842.79,844.811L1840.41,844.811L1831.16,816.58L1821.52,844.811L1819.25,844.811C1817.54,838.779 1815.78,832.526 1813.95,826.044C1812.13,819.552 1810.9,815.214 1810.29,813.008C1810.13,812.471 1809.9,811.995 1809.6,811.579C1809.3,811.166 1808.89,810.795 1808.37,810.443C1807.94,810.151 1807.44,809.931 1806.86,809.79C1806.28,809.639 1805.76,809.552 1805.29,809.516L1805.29,807.664L1820.26,807.664L1820.26,809.516C1818.95,809.586 1817.84,809.71 1816.91,809.903C1815.99,810.089 1815.52,810.416 1815.52,810.857C1815.52,811.033 1815.55,811.263 1815.6,811.545C1815.66,811.827 1815.7,812.056 1815.74,812.233C1816.13,813.741 1816.83,816.245 1817.84,819.738C1818.85,823.221 1820.34,828.45 1822.32,835.41L1831.47,808.184L1834,808.184L1843.23,836C1844.47,831.732 1845.54,827.993 1846.43,824.8C1847.33,821.608 1848.07,818.873 1848.65,816.598C1849.07,814.993 1849.33,813.899 1849.43,813.299C1849.53,812.709 1849.59,812.206 1849.59,811.792C1849.59,811.2 1849.18,810.716 1848.39,810.319C1847.58,809.922 1846.29,809.658 1844.5,809.516L1844.5,807.664L1857.8,807.664L1857.8,809.516ZM1890.37,833.54L1889.67,844.335L1859.27,844.335L1859.27,842.483C1859.79,842.448 1860.48,842.377 1861.34,842.262C1862.2,842.148 1862.76,842.033 1863.02,841.919C1863.57,841.654 1863.95,841.319 1864.16,840.904C1864.38,840.498 1864.49,839.969 1864.49,839.334L1864.49,813C1864.49,812.435 1864.39,811.933 1864.21,811.492C1864.01,811.05 1863.62,810.698 1863.02,810.416C1862.55,810.195 1861.92,810.001 1861.15,809.825C1860.36,809.658 1859.74,809.552 1859.27,809.516L1859.27,807.664L1887.61,807.664L1887.61,816.529L1885.68,816.529C1885.34,815.214 1884.59,813.82 1883.45,812.347C1882.3,810.875 1881.22,810.072 1880.18,809.931C1879.65,809.869 1879.02,809.816 1878.27,809.781C1877.53,809.745 1876.7,809.728 1875.74,809.728L1869.99,809.728L1869.99,824.28L1874.12,824.28C1875.44,824.28 1876.4,824.156 1877.02,823.909C1877.63,823.654 1878.17,823.239 1878.63,822.649C1879.01,822.154 1879.33,821.485 1879.6,820.645C1879.86,819.818 1880.04,819.024 1880.13,818.282L1882.06,818.282L1882.06,832.649L1880.13,832.649C1880.06,831.82 1879.87,830.947 1879.57,830.03C1879.27,829.104 1878.95,828.434 1878.63,828.028C1878.1,827.35 1877.49,826.917 1876.81,826.705C1876.13,826.503 1875.23,826.396 1874.12,826.396L1869.99,826.396L1869.99,837.394C1869.99,838.496 1870.07,839.362 1870.22,839.996C1870.38,840.63 1870.68,841.116 1871.13,841.442C1871.57,841.768 1872.19,841.98 1872.96,842.078C1873.73,842.174 1874.83,842.218 1876.26,842.218L1878.5,842.218C1879.43,842.218 1880.21,842.183 1880.85,842.113C1881.5,842.042 1882.18,841.919 1882.88,841.743C1883.57,841.557 1884.07,841.31 1884.36,841C1885.14,840.181 1885.97,838.929 1886.85,837.245C1887.71,835.569 1888.27,834.325 1888.51,833.54L1890.37,833.54Z" />
            </g>
            <g
   id="g417"
   transform="matrix(4.16667,0,0,4.16667,-6867.86,-3063.29)">
                <path
   id="path415"
   style="fill:white;"
   d="M1898.62,785.29C1898.62,785.835 1898.42,786.305 1898.03,786.69C1897.63,787.075 1897.16,787.27 1896.61,787.27C1896.06,787.27 1895.59,787.075 1895.2,786.69C1894.8,786.305 1894.6,785.835 1894.6,785.29C1894.6,784.74 1894.8,784.27 1895.2,783.875C1895.59,783.481 1896.06,783.281 1896.61,783.281C1897.16,783.281 1897.63,783.481 1898.03,783.875C1898.42,784.27 1898.62,784.74 1898.62,785.29ZM1914.87,774.232C1915.45,774.917 1915.9,775.712 1916.22,776.617C1916.53,777.521 1916.69,778.557 1916.69,779.721C1916.69,780.861 1916.5,781.906 1916.12,782.851C1915.74,783.795 1915.24,784.596 1914.61,785.26C1913.96,785.935 1913.23,786.455 1912.43,786.815C1911.62,787.18 1910.77,787.36 1909.87,787.36C1909,787.36 1908.29,787.26 1907.73,787.065C1907.18,786.87 1906.72,786.64 1906.37,786.38L1906.25,786.38L1906.25,790.704C1906.25,791.059 1906.33,791.35 1906.46,791.585C1906.59,791.819 1906.81,791.989 1907.09,792.094C1907.32,792.184 1907.66,792.27 1908.09,792.349C1908.53,792.434 1908.88,792.479 1909.17,792.489L1909.17,793.479L1901.1,793.479L1901.1,792.489C1901.39,792.469 1901.69,792.444 1901.97,792.414C1902.26,792.384 1902.51,792.339 1902.74,792.27C1903.03,792.174 1903.23,791.999 1903.35,791.759C1903.47,791.514 1903.53,791.224 1903.53,790.894L1903.53,775.547C1903.53,775.252 1903.45,774.972 1903.31,774.697C1903.16,774.427 1902.97,774.207 1902.74,774.042C1902.56,773.922 1902.32,773.832 1902,773.767C1901.69,773.707 1901.38,773.662 1901.1,773.642L1901.1,772.682L1906.02,772.363L1906.22,772.538L1906.22,774.137L1906.35,774.167C1906.85,773.582 1907.48,773.098 1908.23,772.707C1908.98,772.317 1909.73,772.122 1910.48,772.122C1911.37,772.122 1912.2,772.313 1912.95,772.692C1913.69,773.078 1914.34,773.588 1914.87,774.232ZM1912.49,784.62C1912.88,784.016 1913.17,783.311 1913.35,782.511C1913.54,781.711 1913.63,780.816 1913.63,779.826C1913.63,779.107 1913.55,778.366 1913.4,777.611C1913.24,776.862 1913,776.207 1912.66,775.647C1912.33,775.082 1911.9,774.622 1911.36,774.272C1910.82,773.917 1910.17,773.742 1909.42,773.742C1908.7,773.742 1908.08,773.902 1907.57,774.217C1907.06,774.537 1906.62,774.912 1906.25,775.352L1906.25,783.905C1906.35,784.166 1906.48,784.44 1906.69,784.725C1906.89,785.01 1907.11,785.255 1907.35,785.46C1907.66,785.705 1907.98,785.9 1908.34,786.055C1908.69,786.205 1909.12,786.28 1909.63,786.28C1910.17,786.28 1910.7,786.135 1911.21,785.845C1911.72,785.56 1912.15,785.15 1912.49,784.62ZM1925.58,786.97L1918.52,786.97L1918.52,786.01C1918.75,785.99 1918.99,785.97 1919.24,785.945C1919.5,785.92 1919.71,785.885 1919.87,785.835C1920.15,785.745 1920.35,785.59 1920.49,785.37C1920.62,785.15 1920.69,784.865 1920.69,784.515L1920.69,767.773C1920.69,767.423 1920.62,767.093 1920.47,766.784C1920.31,766.479 1920.12,766.233 1919.87,766.059C1919.7,765.944 1919.37,765.834 1918.91,765.739C1918.44,765.639 1918.06,765.579 1917.78,765.559L1917.78,764.629L1923.22,764.294L1923.42,764.514L1923.42,784.341C1923.42,784.68 1923.49,784.96 1923.61,785.18C1923.74,785.4 1923.94,785.57 1924.23,785.685C1924.44,785.785 1924.66,785.86 1924.87,785.905C1925.08,785.955 1925.31,785.99 1925.58,786.01L1925.58,786.97Z" />
            </g>
        </g>
    </g>
</svg>
