<?xml version="1.0" encoding="UTF-8" standalone="no"?><!DOCTYPE svg PUBLIC "-//W3C//DTD SVG 1.1//EN" "http://www.w3.org/Graphics/SVG/1.1/DTD/svg11.dtd"><svg width="100%" height="100%" viewBox="0 0 500 140" version="1.1" xmlns="http://www.w3.org/2000/svg" xmlns:xlink="http://www.w3.org/1999/xlink" xml:space="preserve" xmlns:serif="http://www.serif.com/" style="fill-rule:evenodd;clip-rule:evenodd;"><g id="Warstwa_x0020_1"><g><g><clipPath id="_clip1"><path d="M100.898,30.663l0,84.994l-3.364,-3.789l-45.869,-46.638l-36.897,46.638l-3.361,3.789l0,-92.892l5.555,-5.704l0,86.059l12.424,-15.888l0,-20.307l10.361,0l0,7.057l10.525,-13.46l1.393,-1.568l1.392,1.568l43.901,44.42l0,-71.826l-31.691,0l-2.453,-2.453l38.084,0Zm-69.234,53.656l5.806,-7.424l0,-7.692l-5.806,0l0,15.116Z"/></clipPath><g clip-path="url(#_clip1)"><g id="_2143346466656"><rect x="-95.058" y="-73.309" width="302.422" height="279.336" style="fill:url(#_Linear2);stroke:#2b2a29;stroke-width:0.5px;"/></g></g></g></g><path d="M116.268,115.69l-92.198,-92.198l0,89.501l65.097,0l2.669,2.664l-70.43,0l0,-98.594l98.628,98.627l-3.766,0Z" style="fill:#fff;fill-rule:nonzero;"/><path d="M165.965,90.4c-0.371,0.012 -0.937,0.115 -1.698,0.3c-0.76,0.186 -1.306,0.378 -1.635,0.582c-0.478,0.307 -0.794,0.909 -0.957,1.798c-0.169,0.882 -0.248,2.008 -0.248,3.37l0,19.463l-1.705,0l-16.956,-21.759l0,13.713c0,1.535 0.101,2.713 0.303,3.537c0.208,0.824 0.518,1.413 0.943,1.759c0.302,0.274 0.921,0.531 1.87,0.767c0.95,0.244 1.569,0.364 1.873,0.378l0,1.343l-11.465,0l0,-1.343c0.357,-0.027 0.955,-0.147 1.798,-0.365c0.841,-0.218 1.365,-0.416 1.575,-0.589c0.464,-0.351 0.78,-0.882 0.95,-1.604c0.167,-0.718 0.254,-1.938 0.254,-3.678l0,-13.087c0,-0.575 -0.107,-1.145 -0.316,-1.72c-0.208,-0.575 -0.492,-1.016 -0.848,-1.33c-0.471,-0.41 -1.111,-0.768 -1.919,-1.055c-0.814,-0.295 -1.468,-0.456 -1.966,-0.48l0,-1.343l7.972,0l15.739,20.275l0,-12.639c0,-1.549 -0.108,-2.737 -0.317,-3.569c-0.209,-0.832 -0.512,-1.381 -0.909,-1.656c-0.363,-0.237 -0.97,-0.468 -1.804,-0.69c-0.835,-0.231 -1.468,-0.354 -1.899,-0.378l0,-1.343l11.365,0l0,1.343Zm272.271,-9.066l-5.865,4.265l1.096,1.504l6.507,-3.379l-1.738,-2.39Zm-257.738,34.317l-12.602,0l0,-1.343c0.356,-0.027 0.868,-0.064 1.541,-0.116c0.667,-0.045 1.138,-0.121 1.414,-0.224c0.437,-0.159 0.753,-0.384 0.95,-0.664c0.195,-0.281 0.296,-0.671 0.296,-1.172l0,-19.244c0,-0.435 -0.075,-0.8 -0.217,-1.094c-0.147,-0.294 -0.484,-0.536 -1.029,-0.741c-0.39,-0.148 -0.888,-0.288 -1.487,-0.416c-0.6,-0.135 -1.084,-0.213 -1.468,-0.237l0,-1.343l12.602,0l0,1.343c-0.404,0.012 -0.895,0.058 -1.46,0.141c-0.567,0.084 -1.058,0.185 -1.475,0.306c-0.505,0.153 -0.834,0.397 -1.009,0.73c-0.169,0.338 -0.257,0.715 -0.257,1.125l0,19.227c0,0.415 0.094,0.779 0.29,1.094c0.188,0.319 0.511,0.576 0.976,0.761c0.277,0.101 0.72,0.21 1.347,0.325c0.625,0.122 1.158,0.185 1.588,0.199l0,1.343Zm27.009,-7.829l-0.532,7.829l-23.205,0l0,-1.343c0.396,-0.027 0.922,-0.077 1.582,-0.161c0.652,-0.081 1.083,-0.166 1.279,-0.249c0.424,-0.191 0.713,-0.435 0.875,-0.735c0.168,-0.294 0.249,-0.679 0.249,-1.139l0,-19.098c0,-0.409 -0.075,-0.773 -0.215,-1.093c-0.149,-0.32 -0.451,-0.575 -0.909,-0.78c-0.357,-0.162 -0.836,-0.302 -1.427,-0.428c-0.6,-0.123 -1.077,-0.201 -1.434,-0.225l0,-1.343l21.637,0l0,6.428l-1.476,0c-0.261,-0.953 -0.833,-1.964 -1.702,-3.032c-0.875,-1.07 -1.704,-1.651 -2.497,-1.753c-0.405,-0.045 -0.889,-0.083 -1.455,-0.108c-0.566,-0.026 -1.205,-0.038 -1.932,-0.038l-4.389,0l0,10.553l3.15,0c1.01,0 1.743,-0.09 2.215,-0.269c0.465,-0.185 0.875,-0.487 1.226,-0.915c0.29,-0.359 0.538,-0.844 0.74,-1.452c0.202,-0.601 0.337,-1.176 0.404,-1.713l1.474,0l0,10.419l-1.474,0c-0.054,-0.602 -0.196,-1.235 -0.423,-1.901c-0.23,-0.671 -0.472,-1.157 -0.721,-1.452c-0.405,-0.492 -0.87,-0.805 -1.386,-0.959c-0.519,-0.147 -1.207,-0.223 -2.055,-0.223l-3.15,0l0,7.975c0,0.799 0.061,1.426 0.175,1.887c0.122,0.462 0.349,0.813 0.693,1.05c0.336,0.236 0.808,0.389 1.394,0.459c0.592,0.071 1.434,0.104 2.524,0.104l1.712,0c0.705,0 1.304,-0.027 1.789,-0.078c0.498,-0.051 1.016,-0.141 1.548,-0.269c0.531,-0.134 0.908,-0.313 1.132,-0.537c0.599,-0.594 1.232,-1.502 1.898,-2.725c0.661,-1.214 1.083,-2.117 1.265,-2.686l1.421,0Zm30.146,7.829l-7.533,0c-1.669,-2.488 -3.178,-4.638 -4.524,-6.447c-1.347,-1.811 -2.808,-3.678 -4.382,-5.603l-2.869,0l0,8.423c0,0.435 0.075,0.819 0.216,1.152c0.148,0.332 0.458,0.582 0.928,0.754c0.236,0.091 0.655,0.173 1.247,0.25c0.586,0.069 1.09,0.114 1.494,0.128l0,1.343l-11.836,0l0,-1.343c0.318,-0.027 0.774,-0.071 1.375,-0.128c0.598,-0.063 1.015,-0.148 1.251,-0.25c0.398,-0.16 0.681,-0.397 0.855,-0.709c0.183,-0.314 0.271,-0.711 0.271,-1.197l0,-19.207c0,-0.441 -0.069,-0.824 -0.196,-1.164c-0.135,-0.338 -0.445,-0.594 -0.93,-0.767c-0.329,-0.108 -0.754,-0.218 -1.278,-0.307c-0.526,-0.096 -0.977,-0.155 -1.348,-0.179l0,-1.343l12.927,0c1.185,0 2.295,0.115 3.331,0.346c1.044,0.229 1.981,0.6 2.822,1.117c0.821,0.5 1.467,1.152 1.959,1.958c0.484,0.806 0.726,1.777 0.726,2.911c0,1.029 -0.161,1.931 -0.491,2.719c-0.33,0.786 -0.814,1.47 -1.461,2.045c-0.592,0.538 -1.306,1.005 -2.133,1.395c-0.829,0.396 -1.738,0.729 -2.74,1.004c1.38,1.734 2.524,3.192 3.439,4.381c0.916,1.183 2.035,2.628 3.36,4.324c0.579,0.748 1.104,1.297 1.568,1.657c0.465,0.358 0.929,0.645 1.386,0.87c0.345,0.159 0.776,0.287 1.287,0.377c0.512,0.083 0.936,0.133 1.279,0.147l0,1.343Zm-10.381,-19.822c0,-1.604 -0.484,-2.884 -1.462,-3.825c-0.968,-0.939 -2.342,-1.412 -4.112,-1.412l-3.353,0l0,11.397l2.58,0c1.815,0 3.324,-0.55 4.535,-1.655c1.206,-1.108 1.812,-2.604 1.812,-4.505Zm39.746,-5.429c-0.37,0.012 -0.908,0.089 -1.616,0.225c-0.713,0.14 -1.292,0.345 -1.736,0.619c-0.451,0.288 -0.76,0.882 -0.929,1.778c-0.168,0.903 -0.256,2.003 -0.256,3.3l0,11.564c0,1.477 -0.323,2.757 -0.963,3.845c-0.647,1.086 -1.496,1.983 -2.544,2.679c-1.037,0.678 -2.136,1.158 -3.285,1.452c-1.153,0.293 -2.25,0.442 -3.299,0.442c-1.683,0 -3.185,-0.211 -4.498,-0.627c-1.311,-0.424 -2.416,-0.985 -3.311,-1.696c-0.876,-0.716 -1.543,-1.528 -1.986,-2.448c-0.452,-0.916 -0.674,-1.876 -0.674,-2.88l0,-15.72c0,-0.442 -0.073,-0.807 -0.23,-1.1c-0.147,-0.294 -0.457,-0.564 -0.914,-0.813c-0.33,-0.18 -0.747,-0.32 -1.259,-0.422c-0.519,-0.109 -0.936,-0.174 -1.266,-0.198l0,-1.343l11.66,0l0,1.343c-0.37,0.012 -0.834,0.069 -1.393,0.166c-0.559,0.102 -0.97,0.199 -1.233,0.281c-0.443,0.153 -0.747,0.404 -0.895,0.749c-0.155,0.351 -0.229,0.735 -0.229,1.145l0,14.691c0,0.71 0.08,1.458 0.25,2.24c0.161,0.778 0.484,1.501 0.975,2.179c0.511,0.686 1.207,1.248 2.088,1.682c0.88,0.444 2.094,0.659 3.628,0.659c1.448,0 2.659,-0.215 3.642,-0.659c0.976,-0.434 1.752,-1.01 2.316,-1.721c0.539,-0.67 0.923,-1.38 1.144,-2.117c0.222,-0.734 0.336,-1.477 0.336,-2.231l0,-10.898c0,-1.388 -0.106,-2.521 -0.315,-3.402c-0.21,-0.884 -0.519,-1.46 -0.93,-1.736c-0.457,-0.312 -1.083,-0.554 -1.877,-0.728c-0.802,-0.18 -1.407,-0.276 -1.825,-0.3l0,-1.343l11.424,0l0,1.343Zm14.575,25.864c-1.67,0 -3.272,-0.313 -4.8,-0.933c-1.535,-0.626 -2.888,-1.528 -4.073,-2.698c-1.172,-1.178 -2.101,-2.611 -2.8,-4.305c-0.694,-1.689 -1.043,-3.595 -1.043,-5.719c0,-2.123 0.342,-4.055 1.022,-5.781c0.687,-1.733 1.63,-3.218 2.84,-4.471c1.193,-1.235 2.607,-2.187 4.236,-2.865c1.628,-0.673 3.372,-1.011 5.223,-1.011c1.38,0 2.626,0.16 3.743,0.487c1.119,0.326 2.182,0.78 3.192,1.361l0.807,-1.272l1.583,0l0.175,9.478l-1.616,0c-0.209,-0.92 -0.525,-1.918 -0.942,-3c-0.426,-1.073 -0.916,-1.989 -1.483,-2.736c-0.624,-0.846 -1.372,-1.511 -2.241,-1.991c-0.868,-0.479 -1.858,-0.715 -2.975,-0.715c-1.273,0 -2.457,0.268 -3.555,0.805c-1.09,0.539 -2.039,1.33 -2.84,2.38c-0.762,1.01 -1.359,2.296 -1.791,3.857c-0.438,1.56 -0.654,3.3 -0.654,5.225c0,1.694 0.23,3.249 0.681,4.668c0.451,1.421 1.096,2.662 1.938,3.737c0.842,1.061 1.839,1.892 2.982,2.487c1.151,0.602 2.437,0.902 3.851,0.902c1.064,0 2.048,-0.16 2.936,-0.48c0.895,-0.32 1.668,-0.742 2.329,-1.266c0.654,-0.551 1.232,-1.177 1.731,-1.874c0.498,-0.703 0.908,-1.465 1.226,-2.289l1.472,0.671c-1.131,2.641 -2.625,4.521 -4.497,5.653c-1.865,1.134 -4.085,1.695 -6.657,1.695Zm42.579,-0.613l-11.62,0l0,-1.343c0.317,-0.027 0.776,-0.064 1.375,-0.116c0.6,-0.045 1.009,-0.121 1.232,-0.224c0.397,-0.147 0.687,-0.376 0.869,-0.684c0.182,-0.3 0.276,-0.696 0.276,-1.183l0,-9.459l-13.129,0l0,9.248c0,0.441 0.075,0.806 0.23,1.106c0.147,0.301 0.451,0.563 0.896,0.788c0.222,0.114 0.619,0.223 1.19,0.338c0.573,0.109 1.023,0.172 1.353,0.186l0,1.343l-11.618,0l0,-1.343c0.316,-0.027 0.772,-0.064 1.374,-0.116c0.597,-0.045 1.009,-0.121 1.232,-0.224c0.396,-0.147 0.685,-0.376 0.867,-0.684c0.182,-0.3 0.277,-0.696 0.277,-1.183l0,-19.175c0,-0.397 -0.088,-0.761 -0.257,-1.093c-0.168,-0.333 -0.464,-0.589 -0.887,-0.78c-0.358,-0.162 -0.79,-0.302 -1.294,-0.428c-0.505,-0.123 -0.942,-0.201 -1.312,-0.225l0,-1.343l11.618,0l0,1.343c-0.369,0.012 -0.82,0.069 -1.353,0.166c-0.53,0.102 -0.929,0.199 -1.19,0.281c-0.445,0.153 -0.749,0.404 -0.896,0.755c-0.155,0.345 -0.23,0.729 -0.23,1.139l0,8.25l13.129,0l0,-8.058c0,-0.404 -0.088,-0.768 -0.257,-1.1c-0.168,-0.333 -0.464,-0.589 -0.888,-0.774c-0.357,-0.168 -0.789,-0.308 -1.292,-0.434c-0.505,-0.123 -0.945,-0.201 -1.315,-0.225l0,-1.343l11.62,0l0,1.343c-0.369,0.012 -0.82,0.069 -1.352,0.166c-0.531,0.102 -0.928,0.199 -1.191,0.281c-0.444,0.153 -0.749,0.404 -0.895,0.749c-0.156,0.351 -0.229,0.735 -0.229,1.145l0,19.149c0,0.441 0.073,0.806 0.229,1.106c0.146,0.301 0.451,0.563 0.895,0.788c0.223,0.114 0.618,0.223 1.191,0.338c0.572,0.109 1.024,0.172 1.352,0.186l0,1.343Zm26.558,-23.423c1.24,1.223 2.202,2.7 2.902,4.434c0.695,1.727 1.044,3.639 1.044,5.736c0,2.112 -0.357,4.03 -1.063,5.757c-0.714,1.72 -1.697,3.191 -2.963,4.399c-1.218,1.204 -2.638,2.124 -4.253,2.777c-1.623,0.646 -3.341,0.973 -5.171,0.973c-1.946,0 -3.744,-0.346 -5.393,-1.044c-1.648,-0.691 -3.068,-1.655 -4.255,-2.891c-1.178,-1.214 -2.114,-2.686 -2.787,-4.412c-0.679,-1.733 -1.015,-3.583 -1.015,-5.559c0,-2.155 0.355,-4.086 1.063,-5.775c0.714,-1.695 1.69,-3.16 2.941,-4.395c1.233,-1.228 2.672,-2.161 4.309,-2.814c1.636,-0.646 3.345,-0.971 5.137,-0.971c1.85,0 3.601,0.332 5.243,0.992c1.644,0.664 3.063,1.591 4.261,2.793Zm-2.935,18.862c0.742,-1.138 1.274,-2.429 1.61,-3.87c0.338,-1.438 0.504,-3.044 0.504,-4.822c0,-1.823 -0.189,-3.497 -0.565,-5.027c-0.37,-1.522 -0.923,-2.826 -1.642,-3.901c-0.727,-1.062 -1.636,-1.893 -2.727,-2.488c-1.091,-0.595 -2.342,-0.889 -3.749,-0.889c-1.583,0 -2.923,0.346 -4.025,1.029c-1.104,0.691 -2.006,1.612 -2.708,2.764c-0.654,1.099 -1.144,2.386 -1.467,3.862c-0.323,1.478 -0.485,3.026 -0.485,4.65c0,1.804 0.169,3.429 0.511,4.881c0.344,1.451 0.882,2.737 1.623,3.863c0.707,1.106 1.603,1.963 2.679,2.583c1.084,0.621 2.37,0.929 3.872,0.929c1.407,0 2.679,-0.314 3.81,-0.94c1.13,-0.622 2.053,-1.497 2.759,-2.624Zm44.096,4.561l-12.361,0l0,-1.343c0.445,-0.014 1.018,-0.059 1.725,-0.128c0.699,-0.077 1.183,-0.186 1.447,-0.32c0.409,-0.237 0.706,-0.512 0.901,-0.819c0.189,-0.306 0.283,-0.69 0.283,-1.151l0,-19.328l-0.296,0l-9.552,22.667l-0.991,0l-9.101,-23.134l-0.257,0l0,15.862c0,1.535 0.101,2.704 0.306,3.504c0.207,0.8 0.515,1.375 0.94,1.721c0.29,0.263 0.883,0.512 1.792,0.748c0.908,0.244 1.5,0.364 1.777,0.378l0,1.343l-11.29,0l0,-1.343c0.592,-0.051 1.211,-0.141 1.865,-0.281c0.654,-0.135 1.158,-0.346 1.508,-0.621c0.464,-0.345 0.781,-0.883 0.949,-1.605c0.169,-0.724 0.256,-1.938 0.256,-3.634l0,-13.59c0,-0.787 -0.102,-1.434 -0.298,-1.932c-0.194,-0.499 -0.476,-0.902 -0.847,-1.217c-0.403,-0.337 -0.909,-0.588 -1.502,-0.747c-0.584,-0.166 -1.17,-0.257 -1.749,-0.281l0,-1.343l9.526,0l8.017,19.948l6.853,-16.686c0.25,-0.615 0.465,-1.254 0.646,-1.919c0.176,-0.672 0.271,-1.12 0.283,-1.343l9.13,0l0,1.343c-0.365,0.012 -0.835,0.069 -1.409,0.166c-0.572,0.102 -0.988,0.199 -1.251,0.281c-0.445,0.153 -0.747,0.404 -0.909,0.749c-0.154,0.351 -0.236,0.735 -0.236,1.145l0,19.149c0,0.441 0.082,0.806 0.236,1.106c0.162,0.301 0.464,0.563 0.909,0.788c0.234,0.127 0.66,0.243 1.259,0.345c0.606,0.108 1.09,0.165 1.441,0.179l0,1.343Zm26.349,-23.423c1.239,1.223 2.2,2.7 2.901,4.434c0.695,1.727 1.043,3.639 1.043,5.736c0,2.112 -0.357,4.03 -1.063,5.757c-0.713,1.72 -1.696,3.191 -2.962,4.399c-1.219,1.204 -2.637,2.124 -4.254,2.777c-1.622,0.646 -3.34,0.973 -5.17,0.973c-1.946,0 -3.744,-0.346 -5.393,-1.044c-1.649,-0.691 -3.069,-1.655 -4.255,-2.891c-1.178,-1.214 -2.112,-2.686 -2.786,-4.412c-0.68,-1.733 -1.017,-3.583 -1.017,-5.559c0,-2.155 0.356,-4.086 1.064,-5.775c0.713,-1.695 1.689,-3.16 2.941,-4.395c1.232,-1.228 2.673,-2.161 4.309,-2.814c1.636,-0.646 3.345,-0.971 5.137,-0.971c1.851,0 3.602,0.332 5.244,0.992c1.643,0.664 3.062,1.591 4.261,2.793Zm-2.936,18.862c0.742,-1.138 1.274,-2.429 1.61,-3.87c0.338,-1.438 0.505,-3.044 0.505,-4.822c0,-1.823 -0.19,-3.497 -0.567,-5.027c-0.369,-1.522 -0.922,-2.826 -1.642,-3.901c-0.727,-1.062 -1.636,-1.893 -2.725,-2.488c-1.093,-0.595 -2.343,-0.889 -3.75,-0.889c-1.583,0 -2.923,0.346 -4.026,1.029c-1.104,0.691 -2.006,1.612 -2.706,2.764c-0.654,1.099 -1.146,2.386 -1.469,3.862c-0.322,1.478 -0.484,3.026 -0.484,4.65c0,1.804 0.168,3.429 0.511,4.881c0.344,1.451 0.883,2.737 1.623,3.863c0.707,1.106 1.602,1.963 2.679,2.583c1.084,0.621 2.37,0.929 3.872,0.929c1.407,0 2.678,-0.314 3.809,-0.94c1.132,-0.622 2.053,-1.497 2.76,-2.624Zm27.818,-7.649c0.586,0.627 1.023,1.311 1.305,2.052c0.283,0.742 0.426,1.606 0.426,2.597c0,2.348 -0.917,4.286 -2.741,5.808c-1.832,1.528 -4.093,2.29 -6.808,2.29c-1.244,0 -2.496,-0.186 -3.742,-0.557c-1.251,-0.371 -2.329,-0.818 -3.238,-1.35l-0.848,1.37l-1.575,0l-0.276,-9.094l1.595,0c0.33,1.125 0.713,2.141 1.158,3.049c0.438,0.909 1.018,1.76 1.744,2.547c0.68,0.741 1.481,1.329 2.395,1.764c0.91,0.442 1.974,0.659 3.184,0.659c0.91,0 1.698,-0.115 2.379,-0.339c0.672,-0.224 1.225,-0.543 1.641,-0.959c0.425,-0.416 0.735,-0.902 0.936,-1.458c0.209,-0.557 0.309,-1.203 0.309,-1.932c0,-1.061 -0.315,-2.054 -0.948,-2.968c-0.627,-0.921 -1.568,-1.619 -2.814,-2.091c-0.855,-0.326 -1.832,-0.684 -2.936,-1.081c-1.104,-0.39 -2.052,-0.761 -2.854,-1.113c-1.575,-0.678 -2.8,-1.56 -3.669,-2.654c-0.875,-1.094 -1.313,-2.521 -1.313,-4.284c0,-1.012 0.215,-1.951 0.654,-2.829c0.431,-0.875 1.05,-1.656 1.851,-2.348c0.761,-0.644 1.663,-1.156 2.699,-1.528c1.038,-0.364 2.121,-0.549 3.252,-0.549c1.287,0 2.443,0.191 3.461,0.569c1.016,0.378 1.944,0.813 2.786,1.317l0.809,-1.272l1.581,0l0.155,8.826l-1.595,0c-0.289,-1.017 -0.613,-1.989 -0.976,-2.917c-0.364,-0.927 -0.829,-1.771 -1.408,-2.519c-0.565,-0.73 -1.258,-1.312 -2.073,-1.74c-0.815,-0.435 -1.811,-0.653 -2.995,-0.653c-1.246,0 -2.309,0.385 -3.192,1.152c-0.882,0.761 -1.319,1.7 -1.319,2.808c0,1.143 0.283,2.097 0.847,2.859c0.56,0.754 1.38,1.374 2.458,1.861c0.963,0.44 1.906,0.817 2.827,1.132c0.93,0.319 1.826,0.665 2.686,1.023c0.788,0.326 1.548,0.697 2.277,1.107c0.733,0.415 1.365,0.894 1.905,1.445Zm17.556,12.823c-1.669,0 -3.272,-0.313 -4.8,-0.933c-1.535,-0.626 -2.887,-1.528 -4.072,-2.698c-1.173,-1.178 -2.102,-2.611 -2.801,-4.305c-0.694,-1.689 -1.043,-3.595 -1.043,-5.719c0,-2.123 0.342,-4.055 1.023,-5.781c0.685,-1.733 1.629,-3.218 2.839,-4.471c1.192,-1.235 2.607,-2.187 4.237,-2.865c1.627,-0.673 3.372,-1.011 5.223,-1.011c1.38,0 2.625,0.16 3.743,0.487c1.117,0.326 2.18,0.78 3.191,1.361l0.807,-1.272l1.583,0l0.176,9.478l-1.617,0c-0.209,-0.92 -0.526,-1.918 -0.942,-3c-0.426,-1.073 -0.916,-1.989 -1.482,-2.736c-0.625,-0.846 -1.373,-1.511 -2.242,-1.991c-0.868,-0.479 -1.856,-0.715 -2.975,-0.715c-1.272,0 -2.457,0.268 -3.555,0.805c-1.09,0.539 -2.04,1.33 -2.841,2.38c-0.759,1.01 -1.358,2.296 -1.79,3.857c-0.437,1.56 -0.654,3.3 -0.654,5.225c0,1.694 0.23,3.249 0.682,4.668c0.45,1.421 1.096,2.662 1.938,3.737c0.841,1.061 1.838,1.892 2.982,2.487c1.152,0.602 2.436,0.902 3.851,0.902c1.064,0 2.046,-0.16 2.935,-0.48c0.895,-0.32 1.669,-0.742 2.33,-1.266c0.653,-0.551 1.231,-1.177 1.73,-1.874c0.499,-0.703 0.907,-1.465 1.225,-2.289l1.475,0.671c-1.132,2.641 -2.626,4.521 -4.497,5.653c-1.865,1.134 -4.087,1.695 -6.659,1.695Zm25.864,-0.613l-12.601,0l0,-1.343c0.356,-0.027 0.868,-0.064 1.542,-0.116c0.665,-0.045 1.137,-0.121 1.412,-0.224c0.439,-0.159 0.754,-0.384 0.95,-0.664c0.194,-0.281 0.296,-0.671 0.296,-1.172l0,-19.244c0,-0.435 -0.074,-0.8 -0.216,-1.094c-0.147,-0.294 -0.484,-0.536 -1.03,-0.741c-0.39,-0.148 -0.887,-0.288 -1.487,-0.416c-0.599,-0.135 -1.084,-0.213 -1.467,-0.237l0,-1.343l12.601,0l0,1.343c-0.403,0.012 -0.896,0.058 -1.461,0.141c-0.564,0.084 -1.057,0.185 -1.473,0.306c-0.505,0.153 -0.836,0.397 -1.009,0.73c-0.169,0.338 -0.257,0.715 -0.257,1.125l0,19.227c0,0.415 0.094,0.779 0.288,1.094c0.19,0.319 0.513,0.576 0.978,0.761c0.276,0.101 0.721,0.21 1.347,0.325c0.624,0.122 1.156,0.185 1.587,0.199l0,1.343Z" style="fill:#fff;"/><path d="M189.972,33.358c-0.436,0.018 -0.954,0.118 -1.545,0.309c-0.581,0.182 -1.126,0.427 -1.617,0.726c-0.628,0.392 -1.126,0.846 -1.509,1.346c-0.382,0.509 -0.709,1.218 -1,2.118c-1.253,4.099 -2.718,8.888 -4.389,14.368c-1.673,5.471 -3.471,11.306 -5.408,17.504l-2.445,0l-9.533,-29.091l-9.935,29.091l-2.344,0c-1.754,-6.216 -3.572,-12.66 -5.452,-19.339c-1.882,-6.689 -3.145,-11.161 -3.782,-13.433c-0.162,-0.555 -0.399,-1.045 -0.709,-1.473c-0.308,-0.426 -0.726,-0.809 -1.263,-1.171c-0.444,-0.301 -0.962,-0.528 -1.554,-0.673c-0.599,-0.155 -1.135,-0.246 -1.617,-0.282l0,-1.909l15.422,0l0,1.909c-1.353,0.072 -2.499,0.2 -3.453,0.399c-0.944,0.191 -1.428,0.528 -1.428,0.983c0,0.18 0.028,0.417 0.083,0.708c0.054,0.291 0.1,0.527 0.136,0.709c0.409,1.555 1.127,4.135 2.172,7.735c1.037,3.589 2.573,8.977 4.616,16.149l9.425,-28.055l2.609,0l9.507,28.664c1.281,-4.399 2.38,-8.252 3.298,-11.542c0.927,-3.29 1.691,-6.108 2.29,-8.452c0.428,-1.654 0.701,-2.782 0.8,-3.4c0.109,-0.608 0.165,-1.126 0.165,-1.552c0,-0.61 -0.419,-1.11 -1.237,-1.519c-0.827,-0.409 -2.163,-0.681 -4.008,-0.827l0,-1.909l13.705,0l0,1.909Zm90.707,37.565c0.351,-0.631 0.773,-1.191 1.27,-1.684l-8.9,0l0,-1.909c1.381,-0.091 2.527,-0.264 3.444,-0.535c0.918,-0.265 1.371,-0.592 1.371,-0.982c0,-0.164 -0.017,-0.355 -0.053,-0.583c-0.038,-0.235 -0.091,-0.435 -0.154,-0.617l-3.145,-8.462l-13.233,0c-0.5,1.246 -0.9,2.328 -1.217,3.245c-0.31,0.927 -0.591,1.773 -0.837,2.553c-0.227,0.764 -0.389,1.391 -0.482,1.864c-0.081,0.481 -0.127,0.872 -0.127,1.172c0,0.71 0.556,1.264 1.673,1.655c1.118,0.389 2.381,0.617 3.78,0.69l0,1.909l-14.214,0l0,-1.909c0.464,-0.036 1.037,-0.136 1.726,-0.31c0.701,-0.163 1.263,-0.39 1.711,-0.671c0.708,-0.482 1.252,-0.982 1.643,-1.508c0.391,-0.527 0.772,-1.246 1.145,-2.173c1.899,-4.735 3.999,-10.062 6.291,-15.977c2.288,-5.908 4.325,-11.171 6.124,-15.787l2.127,0l12.596,32.591c0.264,0.69 0.564,1.255 0.899,1.682c0.337,0.427 0.811,0.835 1.419,1.244c0.408,0.254 0.935,0.464 1.591,0.628c0.663,0.171 1.208,0.263 1.654,0.281l0,1.909l-2.814,0c-0.258,0.171 -0.556,0.344 -0.863,0.551c-0.635,0.426 -1.202,0.995 -1.711,1.703l1.107,0.615c0.972,0.538 1.583,1.207 1.847,2.013c0.257,0.813 0.154,1.649 -0.319,2.503c-0.819,1.479 -2.753,1.912 -4.221,1.099c-1.248,-0.692 -1.955,-1.626 -2.113,-2.812c-0.164,-1.176 0.166,-2.51 0.985,-3.988Zm-56.534,-37.565c-0.301,0.018 -0.782,0.135 -1.436,0.364c-0.664,0.218 -1.127,0.435 -1.418,0.645c-0.69,0.427 -1.163,0.753 -1.408,0.99c-0.248,0.227 -0.728,0.827 -1.437,1.809c-1.381,1.945 -2.663,3.926 -3.835,5.934c-1.172,2 -2.636,4.544 -4.389,7.635c-0.665,1.136 -1.092,2.045 -1.31,2.744c-0.209,0.692 -0.318,1.691 -0.318,3l0,7.207c0,0.635 0.127,1.191 0.383,1.662c0.263,0.473 0.699,0.846 1.325,1.128c0.373,0.145 1.037,0.319 1.991,0.518c0.965,0.209 1.736,0.318 2.318,0.336l0,1.909l-17.677,0l0,-1.909c0.5,-0.036 1.245,-0.1 2.237,-0.199c0.989,-0.102 1.689,-0.228 2.079,-0.382c0.636,-0.273 1.074,-0.637 1.309,-1.092c0.246,-0.463 0.364,-1.035 0.364,-1.708l0,-9.17c0,-0.282 -0.172,-0.8 -0.518,-1.554c-0.345,-0.755 -0.763,-1.6 -1.236,-2.518c-1.063,-2.063 -2.245,-4.28 -3.544,-6.679c-1.3,-2.39 -2.426,-4.444 -3.381,-6.144c-0.582,-1.018 -1.108,-1.773 -1.554,-2.291c-0.455,-0.516 -0.972,-0.963 -1.563,-1.353c-0.426,-0.273 -0.936,-0.473 -1.527,-0.618c-0.601,-0.137 -1.136,-0.228 -1.618,-0.264l0,-1.909l16.114,0l0,1.909c-1.809,0.036 -3.09,0.163 -3.836,0.371c-0.745,0.211 -1.117,0.519 -1.117,0.91c0,0.101 0.055,0.29 0.163,0.554c0.101,0.265 0.254,0.602 0.445,1.01c0.237,0.463 0.509,0.99 0.827,1.581c0.319,0.6 0.628,1.172 0.909,1.718c0.837,1.581 1.682,3.153 2.554,4.725c0.874,1.565 2.009,3.608 3.409,6.127c2.79,-4.482 4.916,-7.981 6.379,-10.489c1.464,-2.508 2.191,-4.016 2.191,-4.508c0,-0.408 -0.146,-0.736 -0.447,-0.99c-0.308,-0.245 -0.708,-0.447 -1.199,-0.582c-0.517,-0.145 -1.072,-0.236 -1.681,-0.281c-0.6,-0.046 -1.164,-0.09 -1.672,-0.146l0,-1.909l13.124,0l0,1.909Zm25.392,0c-0.498,0.018 -1.108,0.082 -1.844,0.2c-0.746,0.118 -1.364,0.263 -1.882,0.436c-0.6,0.22 -1.008,0.573 -1.227,1.073c-0.21,0.491 -0.318,1.036 -0.318,1.617l0,22.403c0,1.172 -0.236,2.417 -0.708,3.726c-0.473,1.318 -1.163,2.49 -2.063,3.518c-1.056,1.208 -2.299,2.145 -3.755,2.825c-1.444,0.673 -3.108,1.009 -4.97,1.009c-2.9,0 -5.254,-0.817 -7.062,-2.444c-1.809,-1.636 -2.708,-3.827 -2.708,-6.58c0,-1.2 0.309,-2.272 0.935,-3.208c0.618,-0.927 1.527,-1.392 2.727,-1.392c1.063,0 1.926,0.292 2.572,0.892c0.655,0.591 0.973,1.381 0.973,2.354c0,0.572 -0.11,1.136 -0.346,1.708c-0.228,0.564 -0.49,1.073 -0.772,1.509c-0.265,0.409 -0.572,0.89 -0.909,1.445c-0.336,0.546 -0.581,1.045 -0.718,1.491c0.373,0.581 0.955,1.1 1.744,1.545c0.792,0.444 1.854,0.663 3.191,0.663c1.299,0 2.362,-0.299 3.19,-0.891c0.827,-0.599 1.444,-1.39 1.864,-2.38c0.39,-0.928 0.673,-2.064 0.835,-3.408c0.173,-1.355 0.253,-2.864 0.253,-4.527l0,-19.993c0,-0.619 -0.099,-1.137 -0.308,-1.556c-0.2,-0.417 -0.617,-0.78 -1.263,-1.108c-0.545,-0.281 -1.235,-0.5 -2.062,-0.645c-0.828,-0.155 -1.5,-0.246 -2.037,-0.282l0,-1.909l16.668,0l0,1.909Zm24.011,20.447l-5.725,-14.676l-5.616,14.676l11.341,0Zm47.296,-12.104l-1.836,0c-0.163,-0.636 -0.454,-1.4 -0.873,-2.281c-0.419,-0.873 -0.881,-1.708 -1.398,-2.491c-0.536,-0.818 -1.118,-1.527 -1.746,-2.144c-0.636,-0.609 -1.245,-0.964 -1.826,-1.056c-0.555,-0.062 -1.246,-0.117 -2.082,-0.153c-0.836,-0.036 -1.608,-0.055 -2.326,-0.055l-1.545,0l0,30.22c0,0.58 0.126,1.116 0.373,1.607c0.245,0.493 0.681,0.864 1.308,1.128c0.318,0.128 0.981,0.291 2.009,0.509c1.017,0.209 1.808,0.327 2.381,0.345l0,1.909l-17.841,0l0,-1.909c0.5,-0.036 1.254,-0.11 2.28,-0.21c1.019,-0.108 1.729,-0.245 2.119,-0.4c0.582,-0.235 1.009,-0.562 1.291,-0.999c0.271,-0.436 0.408,-1.017 0.408,-1.744l0,-30.456l-1.545,0c-0.544,0 -1.236,0.009 -2.044,0.037c-0.819,0.026 -1.6,0.091 -2.345,0.171c-0.591,0.075 -1.2,0.428 -1.827,1.056c-0.627,0.636 -1.208,1.345 -1.744,2.144c-0.528,0.8 -1,1.656 -1.409,2.545c-0.41,0.9 -0.691,1.637 -0.855,2.227l-1.863,0l0,-10.252l32.936,0l0,10.252Zm39.68,27.538l-10.587,0c-2.037,-3.163 -4.3,-6.298 -6.79,-9.416c-2.49,-3.116 -5.108,-6.134 -7.834,-9.07l-0.69,0l0,13.141c0,0.591 0.107,1.11 0.336,1.573c0.217,0.463 0.626,0.836 1.208,1.118c0.282,0.127 0.808,0.272 1.581,0.455c0.773,0.171 1.419,0.272 1.937,0.29l0,1.909l-15.687,0l0,-1.909c0.409,-0.036 1,-0.091 1.781,-0.164c0.781,-0.063 1.337,-0.172 1.653,-0.316c0.537,-0.229 0.92,-0.574 1.155,-1.02c0.246,-0.454 0.364,-1 0.364,-1.636l0,-27.245c0,-0.601 -0.1,-1.128 -0.309,-1.573c-0.2,-0.436 -0.61,-0.801 -1.21,-1.091c-0.481,-0.228 -1.044,-0.428 -1.699,-0.609c-0.663,-0.172 -1.236,-0.282 -1.735,-0.318l0,-1.909l15.687,0l0,1.909c-0.501,0.018 -1.12,0.1 -1.864,0.237c-0.745,0.145 -1.3,0.281 -1.654,0.399c-0.6,0.22 -1.008,0.573 -1.227,1.064c-0.21,0.5 -0.317,1.036 -0.317,1.626l0,13.033l0.536,0c1.589,-1.346 3.152,-2.754 4.698,-4.218c1.536,-1.463 2.935,-2.917 4.199,-4.371c1.399,-1.617 2.417,-2.908 3.062,-3.872c0.646,-0.972 0.972,-1.826 0.972,-2.572c0,-0.263 -0.163,-0.481 -0.49,-0.644c-0.327,-0.173 -0.71,-0.311 -1.136,-0.418c-0.49,-0.101 -0.936,-0.173 -1.327,-0.2c-0.391,-0.028 -0.709,-0.046 -0.964,-0.064l0,-1.909l14.169,0l0,1.909c-0.054,0 -0.172,0.009 -0.345,0.027c-0.182,0.019 -0.382,0.037 -0.609,0.055c-0.255,0.018 -0.5,0.053 -0.745,0.1c-0.246,0.055 -0.572,0.118 -0.955,0.189c-0.626,0.147 -1.263,0.365 -1.936,0.684c-0.663,0.308 -1.207,0.69 -1.625,1.154c-1.828,2.072 -3.737,4.217 -5.718,6.434c-1.991,2.218 -3.953,4.234 -5.898,6.062c2.69,3.053 4.917,5.68 6.68,7.88c1.763,2.199 3.635,4.553 5.625,7.051c0.764,0.955 1.519,1.728 2.282,2.3c0.763,0.573 1.418,1.009 1.972,1.291c0.454,0.227 1.036,0.409 1.726,0.535c0.691,0.119 1.263,0.192 1.728,0.21l0,1.909Zm31.718,-33.282c1.672,1.735 2.971,3.835 3.916,6.299c0.936,2.453 1.409,5.172 1.409,8.151c0,2.999 -0.482,5.726 -1.436,8.181c-0.963,2.444 -2.29,4.534 -3.998,6.253c-1.646,1.707 -3.563,3.016 -5.744,3.943c-2.19,0.918 -4.509,1.381 -6.981,1.381c-2.625,0 -5.052,-0.49 -7.279,-1.48c-2.227,-0.983 -4.145,-2.354 -5.744,-4.109c-1.59,-1.726 -2.854,-3.817 -3.762,-6.27c-0.918,-2.463 -1.373,-5.09 -1.373,-7.899c0,-3.062 0.482,-5.807 1.436,-8.207c0.963,-2.408 2.281,-4.488 3.971,-6.243c1.663,-1.743 3.609,-3.072 5.817,-3.999c2.209,-0.917 4.517,-1.38 6.934,-1.38c2.5,0 4.862,0.471 7.081,1.408c2.218,0.945 4.134,2.262 5.753,3.971Zm-3.963,26.801c0.999,-1.617 1.717,-3.452 2.173,-5.498c0.453,-2.045 0.681,-4.325 0.681,-6.853c0,-2.59 -0.255,-4.971 -0.763,-7.143c-0.501,-2.164 -1.245,-4.016 -2.218,-5.544c-0.981,-1.509 -2.21,-2.689 -3.681,-3.535c-1.472,-0.845 -3.164,-1.263 -5.063,-1.263c-2.135,0 -3.944,0.492 -5.434,1.463c-1.491,0.982 -2.708,2.29 -3.654,3.926c-0.882,1.563 -1.544,3.39 -1.981,5.489c-0.436,2.1 -0.654,4.299 -0.654,6.607c0,2.564 0.228,4.872 0.69,6.935c0.464,2.064 1.191,3.889 2.191,5.49c0.955,1.572 2.163,2.79 3.617,3.67c1.463,0.883 3.199,1.318 5.225,1.318c1.899,0 3.618,-0.444 5.144,-1.335c1.527,-0.881 2.772,-2.126 3.727,-3.727Zm65.417,-29.4c-0.436,0.018 -0.953,0.118 -1.545,0.309c-0.58,0.182 -1.126,0.427 -1.617,0.726c-0.628,0.392 -1.126,0.846 -1.509,1.346c-0.382,0.509 -0.709,1.218 -0.999,2.118c-1.254,4.099 -2.718,8.888 -4.39,14.368c-1.672,5.471 -3.471,11.306 -5.408,17.504l-2.444,0l-9.533,-29.091l-9.935,29.091l-2.345,0c-1.753,-6.216 -3.571,-12.66 -5.452,-19.339c-1.881,-6.689 -3.146,-11.161 -3.781,-13.433c-0.164,-0.555 -0.4,-1.045 -0.71,-1.473c-0.308,-0.426 -0.726,-0.809 -1.262,-1.171c-0.445,-0.301 -0.963,-0.528 -1.553,-0.673c-0.602,-0.155 -1.137,-0.246 -1.619,-0.282l0,-1.909l15.422,0l0,1.909c-1.353,0.072 -2.498,0.2 -3.453,0.399c-0.945,0.191 -1.427,0.528 -1.427,0.983c0,0.18 0.028,0.417 0.083,0.708c0.053,0.291 0.099,0.527 0.136,0.709c0.408,1.555 1.126,4.135 2.171,7.735c1.037,3.589 2.573,8.977 4.617,16.149l9.424,-28.055l2.61,0l9.506,28.664c1.281,-4.399 2.381,-8.252 3.299,-11.542c0.927,-3.29 1.69,-6.108 2.289,-8.452c0.429,-1.654 0.701,-2.782 0.801,-3.4c0.108,-0.608 0.164,-1.126 0.164,-1.552c0,-0.61 -0.419,-1.11 -1.236,-1.519c-0.828,-0.409 -2.164,-0.681 -4.008,-0.827l0,-1.909l13.704,0l0,1.909Zm33.563,24.756l-0.717,11.125l-31.327,0l0,-1.909c0.536,-0.036 1.245,-0.11 2.136,-0.227c0.88,-0.118 1.462,-0.237 1.725,-0.354c0.574,-0.273 0.964,-0.618 1.183,-1.046c0.226,-0.418 0.337,-0.963 0.337,-1.618l0,-27.136c0,-0.583 -0.1,-1.1 -0.293,-1.556c-0.2,-0.453 -0.608,-0.818 -1.227,-1.108c-0.48,-0.228 -1.127,-0.428 -1.925,-0.609c-0.809,-0.172 -1.455,-0.282 -1.936,-0.318l0,-1.909l29.209,0l0,9.135l-1.991,0c-0.353,-1.355 -1.125,-2.791 -2.298,-4.308c-1.183,-1.518 -2.3,-2.345 -3.372,-2.491c-0.546,-0.063 -1.2,-0.118 -1.963,-0.155c-0.763,-0.035 -1.626,-0.054 -2.609,-0.054l-5.925,0l0,14.996l4.253,0c1.364,0 2.354,-0.128 2.991,-0.382c0.627,-0.263 1.18,-0.691 1.653,-1.298c0.39,-0.51 0.727,-1.201 1,-2.066c0.274,-0.852 0.455,-1.671 0.545,-2.435l1.99,0l0,14.806l-1.99,0c-0.073,-0.855 -0.263,-1.755 -0.573,-2.7c-0.308,-0.953 -0.636,-1.645 -0.972,-2.063c-0.545,-0.698 -1.172,-1.145 -1.872,-1.363c-0.701,-0.208 -1.627,-0.318 -2.772,-0.318l-4.253,0l0,11.333c0,1.136 0.081,2.027 0.236,2.681c0.164,0.654 0.472,1.154 0.938,1.49c0.453,0.336 1.088,0.555 1.88,0.656c0.8,0.099 1.934,0.144 3.408,0.144l2.307,0c0.954,0 1.764,-0.037 2.418,-0.108c0.673,-0.074 1.372,-0.2 2.092,-0.382c0.717,-0.191 1.225,-0.446 1.526,-0.764c0.809,-0.845 1.662,-2.136 2.562,-3.871c0.891,-1.727 1.464,-3.009 1.71,-3.818l1.916,0Z" style="fill:#fff;"/></g><defs><linearGradient id="_Linear2" x1="0" y1="0" x2="1" y2="0" gradientUnits="userSpaceOnUse" gradientTransform="matrix(-278.504,108.98,-108.98,-278.504,195.405,11.8695)"><stop offset="0" style="stop-color:#f8dd76;stop-opacity:1"/><stop offset="0.16" style="stop-color:#c08b24;stop-opacity:1"/><stop offset="0.27" style="stop-color:#d9ad3a;stop-opacity:1"/><stop offset="0.41" style="stop-color:#bd8427;stop-opacity:1"/><stop offset="0.74" style="stop-color:#f2d163;stop-opacity:1"/><stop offset="0.86" style="stop-color:#e5bf4d;stop-opacity:1"/><stop offset="1" style="stop-color:#c79423;stop-opacity:1"/></linearGradient></defs></svg>